<?xml version="1.0" standalone="no"?>
<!DOCTYPE svg PUBLIC "-//W3C//DTD SVG 20010904//EN"
 "http://www.w3.org/TR/2001/REC-SVG-20010904/DTD/svg10.dtd">
<svg version="1.0" xmlns="http://www.w3.org/2000/svg"
 width="490.000000pt" height="490.000000pt" viewBox="0 0 490.000000 490.000000"
 preserveAspectRatio="xMidYMid meet">
<metadata>
Created by potrace 1.11, written by Peter Selinger 2001-2013
</metadata>
<g transform="translate(0.000000,490.000000) scale(0.100000,-0.100000)"
fill="#000000" stroke="none">
<path d="M2870 4843 c0 -10 -28 -191 -34 -218 -2 -11 -11 -58 -20 -105 -8 -47
-18 -98 -21 -115 -10 -55 -56 -320 -60 -345 -2 -14 -11 -68 -20 -120 -9 -52
-22 -135 -30 -185 -8 -49 -16 -103 -19 -120 -3 -16 -8 -52 -12 -80 -3 -27 -8
-52 -9 -55 -2 -3 -6 -37 -10 -75 -4 -39 -9 -72 -10 -75 -2 -3 -7 -33 -10 -65
-11 -96 -33 -202 -35 -175 -1 14 -2 28 -1 32 0 4 3 103 6 220 3 117 7 267 10
333 2 66 7 188 10 270 3 83 8 168 10 190 2 22 7 90 10 150 4 61 8 121 10 135
2 14 6 68 9 120 l5 95 -18 -65 -19 -65 5 105 c4 92 3 103 -10 92 -9 -8 -17 -9
-19 -3 -1 5 -10 11 -18 13 -10 2 -17 -13 -26 -57 l-12 -60 -1 70 c-1 48 -4 65
-11 55 -7 -12 -11 -10 -19 10 -6 15 -10 19 -10 9 -1 -9 -9 -23 -18 -30 -14
-12 -16 -12 -8 0 6 11 4 13 -8 8 -9 -3 -16 -3 -16 1 1 4 1 14 0 22 -1 13 -2
13 -11 0 -8 -13 -10 -12 -10 3 0 10 -4 15 -10 12 -5 -3 -10 -15 -10 -26 0 -25
-30 -25 -37 1 -8 32 -23 23 -23 -14 0 -18 -7 -39 -15 -46 -12 -10 -15 -10 -15
3 0 21 -23 62 -37 64 -16 3 -25 -106 -18 -227 7 -110 1 -134 -9 -40 -15 131
-18 150 -27 144 -5 -3 -9 10 -9 29 0 19 -7 50 -15 68 l-15 34 6 -55 c3 -30 7
-61 9 -67 2 -7 -1 -12 -7 -10 -6 1 -17 -9 -24 -22 -11 -21 -12 -22 -18 -5 -3
11 -8 44 -11 74 -3 30 -11 60 -17 65 -7 7 -8 -17 -2 -80 11 -129 8 -199 -8
-189 -5 3 -6 9 -4 12 2 4 -2 18 -10 32 -15 25 -15 24 -8 -10 10 -54 -6 -29
-23 36 -8 32 -22 71 -30 87 -8 16 -17 41 -19 56 -3 14 -10 31 -16 36 -10 9 -6
-45 8 -110 2 -11 12 -60 21 -110 10 -49 21 -95 26 -102 4 -6 3 -14 -2 -17 -5
-4 -12 8 -16 26 -23 117 -29 144 -36 153 -5 6 -11 31 -15 55 -4 25 -16 59 -26
75 l-18 30 -1 -30 -1 -30 -7 30 c-6 27 -10 30 -41 29 -19 0 -66 -6 -105 -13
-38 -7 -77 -14 -85 -15 -8 -1 -28 -8 -43 -14 -23 -10 -34 -9 -58 4 -70 36 -75
-2 -18 -147 23 -57 81 -210 129 -339 49 -129 112 -296 140 -370 28 -74 114
-299 189 -500 152 -400 194 -490 234 -501 44 -12 179 -2 227 16 25 9 57 19 73
22 29 6 30 9 32 90 0 32 7 59 17 70 8 10 19 44 23 77 4 32 8 68 10 80 5 25 25
149 32 191 8 51 63 389 68 415 3 14 14 84 26 155 12 72 22 137 24 145 2 14 10
63 21 133 7 47 12 79 28 172 8 50 17 108 21 130 3 23 8 52 10 65 8 38 15 118
8 95 -8 -31 -26 -45 -19 -15 24 102 27 171 9 177 -7 3 -13 1 -13 -4z m-667
-268 c4 -8 3 -16 -1 -19 -4 -3 -9 4 -9 15 -2 23 3 25 10 4z m278 -99 c1 -48
-2 -90 -5 -93 -3 -4 -6 38 -6 92 0 54 2 96 5 93 3 -2 5 -44 6 -92z m-274 22
c-3 -7 -5 -2 -5 12 0 14 2 19 5 13 2 -7 2 -19 0 -25z m15 -87 c2 -17 1 -28 -4
-25 -8 5 -12 54 -4 54 2 0 6 -13 8 -29z m-162 -53 c0 -7 3 -24 7 -38 9 -36 -6
-19 -17 19 -5 19 -5 31 1 31 5 0 9 -6 9 -12z m167 -20 c-3 -8 -6 -5 -6 6 -1
11 2 17 5 13 3 -3 4 -12 1 -19z m258 -68 c0 -22 -3 -40 -7 -40 -6 0 -5 60 1
78 4 11 7 -5 6 -38z m-248 -47 c-3 -10 -5 -2 -5 17 0 19 2 27 5 18 2 -10 2
-26 0 -35z m253 -44 c0 -16 -3 -29 -7 -29 -5 0 -8 15 -8 34 0 19 3 32 8 29 4
-2 7 -17 7 -34z m-243 -1 c-3 -8 -6 -5 -6 6 -1 11 2 17 5 13 3 -3 4 -12 1 -19z
m240 -145 c-2 -21 -4 -4 -4 37 0 41 2 58 4 38 2 -21 2 -55 0 -75z m-229 51
c-3 -14 -5 -12 -10 9 -3 19 -2 25 4 19 6 -6 8 -18 6 -28z m247 -137 c2 -18 6
-84 8 -147 2 -63 1 -104 -1 -90 -4 23 -5 23 -12 5 -5 -14 -8 -5 -11 32 -2 28
-1 49 4 46 4 -2 7 14 7 37 0 24 -4 39 -10 35 -6 -3 -9 19 -7 59 2 67 12 78 22
23z m-35 -72 c0 -5 -5 -3 -10 5 -5 8 -10 20 -10 25 0 6 5 3 10 -5 5 -8 10 -19
10 -25z m-38 -229 c7 4 6 0 -1 -13 -6 -11 -7 -24 -3 -29 4 -5 0 -3 -7 3 -10 9
-18 9 -27 2 -7 -6 -17 -8 -22 -5 -13 8 -22 56 -11 56 5 0 9 -6 9 -12 0 -9 4
-8 11 2 8 12 10 9 6 -13 -3 -22 -2 -25 9 -16 8 6 15 30 16 53 l1 41 4 -38 c3
-22 8 -35 15 -31z m88 22 c0 -5 -4 -8 -10 -8 -5 0 -10 -8 -10 -17 0 -15 2 -16
10 -3 7 11 10 2 10 -33 0 -36 3 -46 13 -41 9 6 9 4 2 -7 -6 -8 -10 -39 -9 -69
1 -30 3 -83 3 -118 1 -48 4 -61 14 -56 8 5 8 2 -2 -9 -9 -12 -10 -17 -2 -17 9
0 9 -5 1 -20 -8 -14 -8 -20 0 -20 12 0 13 -208 1 -289 -6 -44 -7 -45 -56 -58
-27 -7 -80 -14 -117 -17 -57 -4 -68 -2 -72 12 -22 71 -77 269 -81 290 -3 15
-11 51 -19 79 -8 29 -10 55 -6 58 12 8 14 4 55 -165 21 -85 40 -150 42 -143 2
6 -5 46 -16 89 -11 44 -22 90 -25 104 -3 14 -8 35 -12 48 -4 13 -2 22 5 22 6
0 8 -7 4 -17 -4 -10 -2 -14 4 -10 5 3 10 1 10 -6 1 -17 39 -153 57 -207 19
-53 16 -40 -34 194 -22 99 -36 184 -33 189 3 5 -1 13 -8 18 -11 7 -11 9 3 9
12 0 18 -13 23 -52 4 -29 8 -55 7 -58 0 -3 4 -15 9 -28 5 -13 11 -37 14 -55 3
-18 12 -54 20 -82 8 -27 23 -90 34 -140 11 -49 20 -82 20 -73 1 13 -34 226
-53 323 -2 11 -6 41 -10 66 -4 25 -9 59 -12 75 -8 52 -11 79 -6 64 4 -12 7
-11 14 5 6 15 7 11 3 -14 -3 -19 -1 -39 4 -45 5 -6 12 -31 16 -56 4 -24 9 -48
11 -52 3 -5 -1 -8 -8 -8 -9 0 -9 -3 -2 -8 6 -4 22 -73 34 -154 13 -82 27 -148
30 -148 4 0 4 21 -1 48 -4 26 -10 72 -14 102 -3 30 -8 66 -10 80 -2 14 -7 50
-10 80 -3 30 -8 62 -10 70 -2 8 -6 37 -10 64 -3 27 -9 54 -12 59 -3 6 -1 7 5
3 7 -4 12 -16 12 -27 0 -10 4 -19 9 -19 5 0 7 -18 5 -41 -3 -22 -1 -39 3 -36
4 3 8 -5 9 -16 0 -12 4 -35 7 -52 3 -16 8 -52 12 -80 9 -76 14 -113 30 -200
l14 -80 -5 70 c-3 39 -7 86 -9 105 -2 19 -7 67 -10 105 -4 39 -9 72 -11 74 -2
2 2 11 9 19 9 13 9 14 0 8 -7 -4 -13 -2 -13 3 0 6 4 11 9 11 5 0 12 8 14 18 3
9 5 3 6 -15 0 -17 4 -39 8 -49 5 -12 3 -15 -6 -9 -10 6 -11 3 -3 -11 5 -11 12
-55 16 -99 11 -135 18 -200 23 -205 4 -5 -6 178 -13 230 -2 14 -5 70 -8 125
-3 55 -8 129 -10 165 -3 36 -2 56 1 45 3 -11 10 -23 17 -27 8 -6 7 -8 -2 -8
-8 0 -10 -5 -6 -12 4 -6 7 -32 5 -56 -1 -24 3 -49 8 -56 6 -6 10 -21 9 -31 -3
-68 16 -245 26 -242 6 2 12 14 13 28 l2 24 -8 -25 c-8 -23 -9 -22 -10 13 -1
21 4 37 10 37 8 0 8 4 1 13 -5 6 -8 22 -6 35 3 14 0 21 -6 17 -6 -4 -10 26
-10 82 0 60 3 83 10 73 6 -9 10 -10 10 -3 0 6 -4 15 -10 18 -5 3 -10 14 -10
23 0 15 2 15 11 2 8 -12 9 -9 4 10 -3 14 -6 30 -5 35 9 69 10 135 3 135 -5 0
-7 -24 -5 -54 2 -29 0 -56 -5 -59 -5 -3 -10 6 -10 21 -1 15 -3 46 -6 70 -5 40
-4 42 16 36 18 -6 20 -4 10 7 -9 11 -7 14 13 14 13 0 24 -3 24 -7z m-253 -40
c-3 -8 -6 -5 -6 6 -1 11 2 17 5 13 3 -3 4 -12 1 -19z m23 -42 c0 -3 -4 -8 -10
-11 -5 -3 -10 -1 -10 4 0 6 5 11 10 11 6 0 10 -2 10 -4z m109 -23 c-1 -16 -4
-41 -8 -58 l-7 -30 -5 32 c-3 19 -2 30 4 26 6 -3 8 7 5 26 -2 17 -1 31 4 31 4
0 7 -12 7 -27z m-110 -19 c4 3 8 -1 8 -9 0 -11 -4 -12 -14 -4 -7 6 -13 17 -12
23 0 7 2 6 6 -2 2 -6 8 -10 12 -8z m118 -81 c-3 -10 -5 -4 -5 12 0 17 2 24 5
18 2 -7 2 -21 0 -30z m-5 -23 c5 0 8 -7 4 -15 -3 -8 0 -15 7 -15 8 0 9 -3 1
-8 -6 -4 -14 -14 -17 -22 -3 -10 -6 -6 -7 10 -1 14 -3 39 -5 55 -2 17 -1 22 2
13 2 -10 9 -18 15 -18z"/>
<path d="M2503 3525 c0 -38 2 -53 4 -32 2 20 2 52 0 70 -2 17 -4 1 -4 -38z"/>
<path d="M2503 3424 c1 -16 -3 -28 -9 -27 -6 1 -11 -5 -11 -13 0 -12 3 -11 18
2 10 9 16 25 14 36 -7 33 -15 34 -12 2z"/>
<path d="M2512 3277 c-1 -60 2 -106 6 -103 5 3 7 19 4 37 -4 25 -2 30 9 24 11
-7 12 -6 2 6 -7 8 -14 44 -16 79 -2 45 -4 32 -5 -43z"/>
<path d="M2510 3120 c0 -5 5 -10 10 -10 6 0 10 5 10 10 0 6 -4 10 -10 10 -5 0
-10 -4 -10 -10z"/>
<path d="M2473 3095 c0 -8 6 -15 12 -15 6 0 12 7 12 15 0 8 -6 15 -12 15 -6 0
-12 -7 -12 -15z"/>
<path d="M2482 3050 c0 -14 2 -19 5 -12 2 6 2 18 0 25 -3 6 -5 1 -5 -13z"/>
<path d="M2515 3051 c-3 -5 -2 -12 3 -15 5 -3 9 1 9 9 0 17 -3 19 -12 6z"/>
<path d="M2392 2975 c0 -16 2 -22 5 -12 2 9 2 23 0 30 -3 6 -5 -1 -5 -18z"/>
<path d="M2340 2911 c0 -6 4 -13 10 -16 6 -3 7 1 4 9 -7 18 -14 21 -14 7z"/>
<path d="M2460 4761 c0 -6 4 -13 10 -16 6 -3 7 1 4 9 -7 18 -14 21 -14 7z"/>
<path d="M3117 4658 c-10 -40 -29 -127 -43 -193 -28 -136 -25 -121 -54 -240
-12 -49 -23 -99 -26 -110 -4 -21 -36 -149 -77 -305 -14 -52 -28 -113 -32 -135
-4 -22 -22 -87 -40 -145 -19 -58 -44 -138 -57 -179 -12 -41 -30 -82 -39 -90
-22 -22 -88 -257 -87 -306 1 -22 -5 -54 -13 -71 -10 -18 -13 -38 -8 -51 13
-35 170 -143 209 -143 4 0 25 12 46 26 21 15 52 31 68 37 33 11 289 180 321
211 20 20 20 20 -7 3 -15 -9 -33 -14 -40 -12 -14 6 -33 -6 -188 -112 -50 -35
-93 -63 -97 -63 -13 0 35 45 112 103 44 33 87 68 95 76 8 9 58 51 110 93 52
42 104 85 115 95 11 10 45 38 76 63 31 25 108 89 170 144 63 54 138 119 168
145 30 25 66 57 81 71 15 14 59 51 99 83 81 66 224 231 247 286 37 86 35 86
-49 2 -47 -45 -87 -79 -90 -74 -6 10 9 32 76 110 20 24 37 48 37 53 0 5 3 16
7 26 5 13 3 15 -7 9 -10 -6 -12 -4 -7 8 4 11 1 17 -9 17 -8 0 -13 4 -9 9 3 5
1 12 -4 15 -5 3 -21 -11 -37 -31 -33 -43 -46 -28 -14 17 22 31 20 50 -6 50 -8
0 -14 7 -14 15 0 7 -8 18 -17 24 -14 7 -26 -3 -65 -60 -52 -73 -128 -157 -128
-141 0 5 20 38 44 73 24 35 55 88 70 116 25 50 25 54 9 72 -9 11 -20 18 -25
15 -4 -3 -8 -1 -8 5 0 10 -31 7 -53 -5 -9 -6 -9 -5 0 8 16 19 4 32 -15 15 -13
-10 -14 -8 -7 12 6 18 4 22 -6 15 -8 -5 -26 -9 -40 -9 -24 0 -26 2 -18 30 5
16 9 31 9 33 0 2 -13 -5 -30 -15 -16 -9 -30 -22 -30 -28 0 -5 -4 -4 -9 3 -6
10 -14 5 -30 -22 -27 -43 -38 -48 -16 -6 17 34 19 44 5 35 -6 -4 -7 1 -3 11 4
12 3 15 -5 10 -7 -4 -5 8 5 29 16 33 16 36 0 53 -15 14 -19 15 -26 3 -5 -7
-14 -10 -20 -7 -6 4 -9 12 -6 17 4 5 -2 6 -11 2 -13 -5 -16 -3 -11 10 7 19 -4
22 -20 6 -16 -16 -32 -3 -26 20 8 30 -18 37 -40 10 -17 -22 -20 -22 -31 -6 -7
9 -16 14 -19 11 -3 -4 -10 9 -15 27 l-8 34 -8 -28 c-3 -15 -11 -25 -16 -22 -5
3 -6 13 -3 22 4 11 3 14 -6 9 -13 -9 -44 12 -36 24 9 14 -30 5 -42 -10 -10
-13 -11 -12 -7 7 8 29 -25 47 -61 33 -36 -14 -38 -13 -33 8 5 16 -1 19 -38 18
-24 -1 -44 -3 -45 -6 0 -3 -3 -27 -6 -55 -2 -27 -11 -72 -19 -100 l-14 -50 6
65 c12 116 11 120 -3 120 -7 0 -13 -10 -13 -22 0 -12 -3 -19 -6 -15 -4 3 -7
40 -8 81 -1 42 -5 78 -8 81 -3 3 -12 -27 -21 -67z m586 -353 c-3 -9 -8 -14
-10 -11 -3 3 -2 9 2 15 9 16 15 13 8 -4z m-25 -45 c-7 -10 -14 -17 -17 -15 -4
4 18 35 25 35 2 0 -1 -9 -8 -20z"/>
<path d="M1435 4680 c3 -5 11 -10 16 -10 6 0 7 5 4 10 -3 6 -11 10 -16 10 -6
0 -7 -4 -4 -10z"/>
<path d="M1190 4445 c0 -3 27 -46 60 -95 33 -49 60 -92 60 -95 0 -18 -30 3
-60 42 -47 64 -96 113 -110 113 -6 0 -9 -4 -6 -9 4 -5 -3 -7 -14 -4 -11 3 -20
0 -20 -6 0 -6 -3 -10 -7 -10 -24 4 -24 -4 2 -31 38 -39 24 -52 -16 -14 -24 23
-32 26 -39 14 -5 -8 -7 -17 -4 -21 2 -4 -2 -7 -9 -6 -58 2 -60 -13 -11 -68 54
-61 98 -117 119 -150 l18 -30 -27 25 c-16 14 -62 58 -103 98 -42 39 -80 72
-87 72 -27 -1 -73 -60 -61 -79 3 -5 -5 -7 -17 -3 -21 5 -22 4 -8 -13 14 -17
13 -17 -10 -11 -14 4 -20 4 -14 -1 14 -11 14 -36 -1 -50 -9 -9 -19 -8 -38 2
-22 11 -25 11 -22 -4 1 -9 9 -15 16 -13 11 3 11 1 2 -9 -10 -10 -8 -18 9 -38
13 -14 16 -20 8 -13 -32 27 -32 9 1 -25 18 -20 26 -31 17 -24 -9 7 -22 10 -28
6 -6 -4 -9 -1 -8 6 2 7 -2 13 -9 14 -6 0 -15 4 -20 9 -5 5 -2 6 7 1 10 -5 11
-5 5 2 -17 16 -65 33 -65 23 0 -6 3 -10 8 -10 4 -1 39 -30 77 -67 l70 -65 -63
53 c-82 70 -101 80 -125 68 -15 -8 -16 -13 -6 -25 10 -12 8 -17 -7 -29 -10 -8
-22 -15 -26 -15 -5 0 -8 -12 -8 -26 0 -22 -2 -24 -15 -14 -21 18 -45 6 -38
-19 3 -12 9 -21 14 -21 20 0 7 -31 -20 -44 -21 -11 -31 -12 -40 -3 -8 8 -11 8
-11 -1 0 -7 7 -15 15 -18 23 -9 18 -26 -5 -19 -14 5 -18 3 -15 -8 4 -8 -4 -18
-17 -25 -13 -6 -17 -11 -10 -11 10 -1 10 -4 0 -15 -7 -8 -16 -12 -19 -10 -13
7 -32 -27 -33 -59 -1 -25 -5 -31 -18 -29 -13 2 -18 -4 -18 -23 0 -15 -4 -35
-10 -45 -8 -15 -6 -20 13 -25 61 -18 157 -58 167 -70 6 -7 -28 2 -76 21 -48
19 -89 32 -91 30 -8 -8 11 -36 25 -36 8 0 13 -3 9 -6 -3 -3 -30 -1 -59 5 -90
19 -108 22 -108 16 0 -7 104 -56 285 -136 66 -29 248 -117 405 -195 157 -77
296 -145 310 -149 14 -4 32 -13 40 -20 13 -11 192 -111 272 -152 27 -14 46
-33 33 -33 -4 0 -39 18 -79 39 -70 38 -234 114 -731 336 -132 59 -260 116
-285 127 -25 11 -65 29 -90 40 -25 11 -54 25 -65 30 -15 7 -14 4 5 -13 27 -24
28 -25 -78 21 -72 31 -105 32 -81 4 6 -8 15 -14 19 -14 9 0 242 -107 425 -195
204 -98 512 -235 963 -430 185 -80 242 -110 166 -86 -108 34 -266 81 -514 155
-254 75 -517 161 -829 270 -57 20 -105 35 -107 33 -2 -2 21 -16 51 -31 30 -15
55 -29 55 -31 0 -1 -41 10 -92 26 -105 33 -101 32 -93 19 4 -6 -3 -18 -15 -28
-22 -18 -22 -18 39 -45 65 -29 80 -41 31 -26 -17 5 -45 14 -62 19 -46 14 -57
12 -28 -5 25 -15 24 -15 -14 -11 l-39 4 24 -19 24 -20 -30 6 c-26 5 -27 4 -8
-4 29 -13 29 -19 -3 -31 -27 -11 -24 -27 8 -39 19 -7 19 -8 4 -24 -9 -9 -23
-14 -30 -11 -8 3 -17 1 -20 -4 -3 -5 12 -14 33 -21 68 -20 59 -40 -19 -41 -20
0 -22 -2 -10 -10 13 -9 13 -10 0 -11 -8 0 -1 -7 15 -14 17 -7 34 -11 39 -7 5
3 6 0 2 -6 -5 -9 25 -19 119 -38 159 -31 167 -42 12 -16 -58 10 -103 14 -101
10 3 -4 -20 -7 -51 -7 -31 1 -59 -1 -62 -5 -3 -3 7 -6 23 -6 41 0 75 -11 68
-21 -3 -5 1 -9 9 -9 8 0 24 -9 37 -20 l23 -20 -29 0 c-16 1 -49 5 -74 10 -25
4 -52 4 -60 0 -17 -10 -7 -12 109 -31 41 -6 90 -18 110 -27 l36 -16 -40 -7
c-29 -4 -33 -7 -15 -9 14 -1 31 -2 37 -1 7 1 13 -2 13 -6 0 -5 -39 -9 -87 -10
-49 -2 -106 -5 -128 -7 -22 -3 -44 -5 -49 -5 -14 -1 3 -15 22 -18 9 -1 36 -3
60 -4 23 -2 42 -7 42 -12 0 -5 -19 -8 -42 -7 -50 2 -90 -8 -82 -21 3 -5 -2 -9
-10 -9 -9 0 -18 -10 -20 -22 -8 -38 -19 -200 -17 -244 1 -30 -4 -45 -19 -59
-11 -10 -20 -29 -20 -42 0 -22 7 -26 50 -26 20 0 146 13 170 18 11 2 54 6 97
10 43 3 85 7 93 10 8 2 53 6 100 10 47 4 99 8 115 10 17 2 59 7 95 10 95 9
150 15 190 20 19 2 62 7 95 10 212 19 274 25 315 30 19 3 58 7 85 10 28 4 66
8 85 10 19 2 71 7 115 11 44 3 87 7 95 9 8 2 49 6 90 10 41 4 83 11 92 16 9 5
26 9 37 9 48 0 69 21 90 89 24 77 31 143 21 207 -7 43 -5 47 29 77 69 63 122
122 128 145 3 13 -2 40 -12 61 -9 21 -19 54 -21 72 -2 27 -127 355 -139 367
-2 2 -2 -20 0 -50 2 -35 20 -94 54 -175 28 -66 51 -129 51 -140 0 -10 -45 70
-98 177 -113 225 -193 376 -304 580 -145 264 -205 374 -243 444 -46 88 -130
199 -197 265 -29 28 -88 66 -88 56z m-790 -1505 c11 -8 7 -9 -15 -4 -37 8 -45
14 -19 14 10 0 26 -5 34 -10z m105 -28 c-6 -7 -75 10 -70 18 2 4 20 2 39 -4
19 -6 33 -12 31 -14z m-32 -259 c-7 -2 -19 -2 -25 0 -7 3 -2 5 12 5 14 0 19
-2 13 -5z m70 -10 c-7 -2 -19 -2 -25 0 -7 3 -2 5 12 5 14 0 19 -2 13 -5z m70
-10 c-7 -2 -19 -2 -25 0 -7 3 -2 5 12 5 14 0 19 -2 13 -5z m74 -9 c-3 -3 -12
-4 -19 -1 -8 3 -5 6 6 6 11 1 17 -2 13 -5z m118 -22 c-3 -3 -11 0 -18 7 -9 10
-8 11 6 5 10 -3 15 -9 12 -12z m-570 -102 c3 -5 1 -10 -4 -10 -6 0 -11 5 -11
10 0 6 2 10 4 10 3 0 8 -4 11 -10z m164 -4 c57 -3 107 -8 110 -12 3 -3 -28 -3
-69 0 -41 2 -101 5 -132 5 -32 1 -58 5 -58 10 0 5 10 8 23 6 12 -2 69 -6 126
-9z"/>
<path d="M1550 4426 c0 -8 4 -17 9 -20 5 -4 7 3 4 14 -6 23 -13 26 -13 6z"/>
<path d="M3752 4392 c-10 -17 -10 -27 -2 -40 10 -15 11 -15 6 0 -3 9 0 18 6
20 6 2 8 13 6 23 -4 19 -5 19 -16 -3z"/>
<path d="M1600 4304 c0 -13 18 -39 24 -34 2 3 -2 14 -10 24 -8 11 -14 16 -14
10z"/>
<path d="M1672 4119 c6 -16 12 -28 14 -26 5 5 -13 57 -20 57 -3 0 0 -14 6 -31z"/>
<path d="M2939 4003 c-5 -15 -9 -36 -7 -47 2 -13 7 -2 14 27 12 52 9 62 -7 20z"/>
<path d="M1886 3590 c7 -28 12 -35 18 -29 2 2 -2 15 -10 29 l-15 25 7 -25z"/>
<path d="M4165 3560 c3 -5 8 -10 11 -10 2 0 4 5 4 10 0 6 -5 10 -11 10 -5 0
-7 -4 -4 -10z"/>
<path d="M4015 3460 c-3 -6 1 -7 9 -4 18 7 21 14 7 14 -6 0 -13 -4 -16 -10z"/>
<path d="M4560 3436 c-168 -75 -619 -279 -680 -308 -36 -17 -83 -38 -105 -48
-22 -10 -66 -29 -97 -44 -89 -40 -161 -72 -313 -141 -77 -35 -170 -77 -207
-94 -38 -17 -96 -44 -130 -60 -68 -30 -177 -97 -179 -109 -15 -76 5 -212 41
-279 11 -21 20 -43 20 -50 0 -16 27 -20 72 -12 24 4 47 1 62 -6 31 -16 63 -23
151 -30 114 -10 177 -15 233 -20 143 -13 170 -16 202 -20 19 -2 62 -7 95 -10
59 -6 96 -10 185 -19 25 -3 77 -8 115 -11 39 -3 86 -8 105 -10 19 -2 71 -7
115 -11 44 -3 87 -8 96 -9 9 -2 56 -6 105 -10 49 -4 98 -9 108 -11 11 -2 56
-6 100 -10 45 -3 86 -9 91 -12 7 -3 7 -1 0 6 -5 5 -19 12 -30 15 -11 3 23 3
76 0 63 -4 98 -2 103 5 10 16 -1 19 -99 26 -49 4 -97 9 -105 11 -8 2 -46 6
-85 10 -38 3 -83 8 -100 10 -16 3 -52 7 -80 10 -27 3 -63 8 -80 10 -48 7 -115
14 -190 20 -38 3 -81 7 -95 10 -29 4 -136 16 -195 20 -22 2 -71 7 -110 10 -38
3 -92 8 -120 11 -27 2 -72 6 -100 9 -60 6 -138 12 -260 20 -49 4 -106 10 -125
15 -28 6 -19 8 50 10 47 1 126 3 175 5 345 14 619 19 938 19 206 -1 363 2 355
7 -7 5 -31 9 -52 9 -22 0 -36 3 -32 8 9 8 19 9 112 11 58 1 65 3 54 16 -10 12
-9 15 4 15 10 0 15 4 12 9 -4 5 0 12 6 14 8 4 7 6 -4 7 -10 2 -22 4 -28 5 -5
1 -21 3 -35 4 -14 0 -25 6 -25 12 0 8 12 10 33 6 19 -3 40 -1 48 4 12 7 12 9
-1 10 -8 0 -1 7 15 14 l30 14 -28 1 c-16 0 -26 4 -22 10 4 6 10 8 14 6 4 -3
13 0 21 6 12 8 12 9 -2 4 -26 -8 -30 8 -8 31 22 24 17 33 -17 33 -29 0 -26 20
5 36 28 14 18 24 -24 24 -47 0 -52 18 -9 36 20 8 33 19 30 23 -3 5 1 12 7 15
7 3 -6 4 -29 1 -23 -2 -45 0 -48 5 -3 5 -11 7 -18 5 -7 -2 -40 -6 -74 -9 -33
-3 -85 -8 -115 -12 -29 -4 -50 -4 -47 0 3 4 24 9 45 12 22 2 50 6 63 9 13 2
44 7 69 11 30 4 40 9 31 15 -11 7 -9 9 6 10 44 4 95 19 95 29 0 4 -33 1 -72
-7 -40 -7 -80 -12 -88 -9 -8 2 -3 4 12 5 36 1 45 19 16 30 -21 8 -20 9 17 19
44 13 82 20 105 21 10 1 11 4 3 12 -9 9 -28 9 -75 -1 -121 -25 -228 -20 -157
7 30 11 30 13 7 9 -39 -5 -35 11 5 19 27 6 184 71 196 81 2 2 2 7 -2 10 -5 6
-108 -21 -320 -82 -49 -14 -94 -23 -100 -21 -7 2 8 10 33 16 65 17 181 51 210
62 14 5 35 11 47 14 32 6 123 49 123 58 0 4 -12 5 -27 2 -23 -4 -22 -3 5 7 38
13 38 20 13 111 -11 37 -20 70 -20 72 -2 21 -15 65 -27 92 -13 29 -13 35 1 57
13 19 14 29 5 45 -6 12 -14 21 -18 21 -4 0 -41 -15 -82 -34z m3 -643 c-7 -2
-19 -2 -25 0 -7 3 -2 5 12 5 14 0 19 -2 13 -5z m-56 -9 c-3 -3 -12 -4 -19 -1
-8 3 -5 6 6 6 11 1 17 -2 13 -5z m-110 -20 c-3 -3 -12 -4 -19 -1 -8 3 -5 6 6
6 11 1 17 -2 13 -5z m-60 -10 c-3 -3 -12 -4 -19 -1 -8 3 -5 6 6 6 11 1 17 -2
13 -5z m-44 -11 c-7 -2 -19 -2 -25 0 -7 3 -2 5 12 5 14 0 19 -2 13 -5z m-66
-9 c-3 -3 -12 -4 -19 -1 -8 3 -5 6 6 6 11 1 17 -2 13 -5z m302 -218 c-5 -5
-70 -9 -84 -6 -5 2 10 6 35 9 44 6 58 5 49 -3z m59 7 c-10 -2 -26 -2 -35 0
-10 3 -2 5 17 5 19 0 27 -2 18 -5z"/>
<path d="M1980 3356 c0 -8 4 -17 9 -20 5 -4 7 3 4 14 -6 23 -13 26 -13 6z"/>
<path d="M915 3170 c7 -11 65 -43 65 -36 0 2 -16 13 -36 25 -19 12 -32 16 -29
11z"/>
<path d="M3520 3130 c-9 -6 -10 -10 -3 -10 6 0 15 5 18 10 8 12 4 12 -15 0z"/>
<path d="M2020 2218 c-19 -5 -51 -11 -70 -12 -32 -3 -156 -34 -220 -56 -14 -4
-58 -18 -97 -30 -75 -22 -97 -34 -43 -23 18 3 30 1 30 -5 0 -7 26 -3 68 9 179
53 238 69 252 69 20 -1 -35 -25 -140 -61 -47 -17 -101 -39 -121 -49 -20 -11
-42 -20 -48 -20 -11 0 -45 -14 -126 -50 -11 -5 -92 -39 -180 -76 -243 -101
-433 -183 -500 -215 -33 -16 -66 -29 -74 -29 -7 0 -25 -6 -39 -13 -15 -8 -49
-24 -77 -38 -87 -41 -239 -145 -272 -187 -18 -23 -33 -43 -33 -46 0 -2 45 19
99 47 55 29 103 48 108 43 4 -5 3 -11 -4 -13 -6 -2 -24 -15 -40 -29 -15 -13
-33 -24 -40 -24 -7 0 -30 -17 -52 -38 -31 -29 -39 -43 -34 -60 3 -12 9 -22 14
-22 5 0 6 -7 3 -15 -8 -20 3 -19 33 5 45 35 59 22 17 -15 -37 -33 -38 -35 -17
-41 12 -3 20 -11 17 -18 -2 -6 2 -20 9 -30 13 -17 15 -17 48 6 19 12 50 35 70
50 44 34 129 80 129 70 0 -4 -30 -30 -67 -59 -38 -28 -85 -69 -106 -90 -37
-39 -37 -39 -21 -71 16 -32 22 -36 59 -33 20 2 20 1 1 -14 -20 -15 -12 -20 23
-15 13 2 13 0 1 -16 -14 -15 -13 -16 8 -10 14 5 27 2 36 -7 13 -12 13 -17 0
-36 -14 -19 -14 -21 3 -21 10 0 30 6 45 14 24 13 26 12 21 -2 -4 -10 7 -6 33
13 l39 29 -29 -32 c-17 -18 -26 -32 -22 -32 5 0 3 -7 -4 -15 -7 -8 -17 -12
-24 -8 -6 3 -8 3 -4 -2 4 -4 3 -14 -3 -22 -6 -7 -8 -13 -3 -13 5 0 42 33 84
72 l75 73 -67 -70 c-36 -38 -67 -77 -68 -85 -5 -34 0 -40 25 -34 21 5 24 3 19
-10 -4 -11 -2 -16 7 -14 8 2 13 -4 11 -13 -2 -13 4 -15 25 -11 27 5 27 5 11
-20 -16 -24 -16 -27 -1 -32 9 -4 26 0 38 8 21 14 24 13 40 -4 13 -14 15 -27
10 -52 l-8 -33 22 25 c21 24 22 24 18 3 -3 -15 1 -23 15 -27 14 -3 19 -10 14
-22 -5 -12 -2 -15 9 -10 10 3 18 -1 22 -12 11 -29 29 -41 66 -44 30 -2 34 -5
27 -19 -8 -14 -4 -18 18 -21 15 -3 35 -9 44 -13 14 -5 20 0 29 21 21 58 72
154 81 154 4 0 -2 -21 -16 -47 -13 -27 -31 -64 -39 -84 -14 -34 -14 -37 1 -35
8 2 19 11 23 22 16 41 8 -13 -11 -76 -40 -133 -33 -124 109 128 91 162 284
484 363 607 25 39 55 89 67 112 11 23 52 86 90 140 39 54 85 120 103 146 40
60 58 78 66 73 11 -6 159 217 170 257 6 20 22 51 36 70 14 19 26 41 26 49 0
20 -82 131 -123 170 -34 30 -35 31 -87 16z m70 -89 c0 -4 -22 -21 -49 -39 -46
-29 -99 -77 -61 -55 8 5 38 25 65 45 50 37 75 41 75 14 0 -8 4 -14 10 -14 5 0
16 -13 25 -29 14 -27 13 -32 -11 -74 -13 -25 -32 -51 -42 -59 -16 -12 -16 -11
-3 7 8 11 -26 -20 -76 -70 -49 -49 -105 -103 -124 -120 -20 -16 -48 -41 -64
-55 -34 -29 42 58 125 141 80 83 103 109 98 114 -2 3 -27 -18 -54 -45 -46 -47
-74 -65 -58 -37 5 8 2 8 -9 -2 -18 -15 -23 -26 -7 -16 6 3 10 2 10 -3 0 -8
-23 -23 -40 -26 -11 -2 -60 -44 -60 -52 0 -4 15 5 33 22 17 16 10 4 -18 -25
-27 -30 -55 -61 -62 -68 -6 -7 -15 -13 -19 -13 -5 0 10 18 31 40 21 22 34 40
28 40 -7 0 -15 -5 -18 -11 -4 -6 -13 -8 -21 -5 -7 3 -11 0 -8 -8 2 -6 -10 -25
-28 -41 -18 -15 -46 -40 -62 -54 -28 -25 -28 -24 4 17 18 23 37 42 42 42 4 0
8 5 8 11 0 12 160 174 173 174 4 0 6 3 5 6 -2 4 6 17 16 28 20 22 30 65 14 55
-5 -3 -7 -12 -6 -20 3 -15 -199 -195 -217 -193 -5 0 -4 3 3 6 6 2 10 9 7 13
-3 5 -22 0 -43 -11 l-37 -20 31 28 c17 15 58 50 92 78 33 27 59 51 57 54 -3 2
-13 -2 -23 -10 -11 -8 -47 -35 -82 -61 -35 -26 -68 -45 -73 -41 -6 3 -7 1 -3
-5 7 -12 -32 -38 -53 -33 -8 1 -10 -2 -5 -11 4 -7 4 -10 -1 -6 -5 5 -22 -3
-39 -15 -39 -29 -56 -40 -56 -34 0 9 124 102 183 137 l57 34 -26 14 -26 14 23
24 c24 26 50 34 29 9 -7 -8 -9 -15 -5 -15 4 0 2 -6 -5 -14 -9 -12 -8 -15 8
-13 12 0 19 7 17 17 -1 8 2 21 8 28 6 8 5 12 -4 12 -9 0 -10 3 -2 11 20 20 36
-1 17 -22 -9 -10 -12 -19 -7 -19 6 0 16 7 23 15 7 9 18 14 24 12 9 -4 57 29
109 73 5 4 2 10 -7 13 -17 7 -69 -30 -61 -43 3 -5 0 -12 -6 -16 -7 -4 -9 -3
-6 3 11 17 -20 23 -34 7 -6 -8 -19 -12 -28 -9 -9 3 -47 -15 -86 -40 -39 -24
-74 -45 -80 -45 -5 -1 -19 -9 -30 -18 -43 -38 -117 -84 -113 -72 4 12 179 136
413 290 92 62 104 75 34 40 -59 -31 -91 -42 -84 -30 11 18 125 71 169 79 30 6
45 4 59 -7 9 -8 17 -18 17 -23z m-340 -113 c0 -2 -7 -7 -16 -10 -8 -3 -12 -2
-9 4 6 10 25 14 25 6z m170 -10 c0 -2 -8 -10 -17 -17 -16 -13 -17 -12 -4 4 13
16 21 21 21 13z m-210 -11 c0 -2 -13 -11 -30 -20 -38 -19 -40 -11 -2 9 31 17
32 18 32 11z m130 -29 c0 -2 -8 -10 -17 -17 -16 -13 -17 -12 -4 4 13 16 21 21
21 13z m-220 -21 c0 -2 -10 -9 -22 -15 -22 -11 -22 -10 -4 4 21 17 26 19 26
11z m-80 -49 c0 -2 -7 -7 -16 -10 -8 -3 -12 -2 -9 4 6 10 25 14 25 6z m141
-29 c-6 -8 -8 -16 -5 -19 3 -3 1 -9 -4 -12 -6 -3 -9 0 -8 6 2 16 15 38 23 38
3 0 0 -6 -6 -13z m-221 -12 c0 -2 -10 -9 -22 -15 -22 -11 -22 -10 -4 4 21 17
26 19 26 11z m220 -149 c0 -2 -8 -10 -17 -17 -16 -13 -17 -12 -4 4 13 16 21
21 21 13z m-185 -44 c-53 -42 -60 -46 -33 -19 16 15 31 27 35 27 4 0 3 -3 -2
-8z m135 5 c0 -2 -10 -12 -22 -23 l-23 -19 19 23 c18 21 26 27 26 19z m-231
-80 c-14 -12 -45 -38 -69 -57 -24 -19 -105 -86 -181 -147 -75 -62 -140 -113
-144 -113 -4 0 16 19 45 43 29 23 86 69 125 102 127 106 237 194 245 194 3 0
-7 -10 -21 -22z m57 -29 c-12 -13 -54 -49 -92 -81 -64 -55 -63 -54 16 22 47
45 88 81 92 81 4 0 -3 -10 -16 -22z m-166 -141 c0 -2 -15 -16 -32 -33 l-33
-29 29 33 c28 30 36 37 36 29z m-70 -60 c0 -2 -17 -19 -37 -38 l-38 -34 34 38
c33 34 41 42 41 34z m-80 -70 c0 -1 -22 -25 -50 -52 -27 -27 -50 -46 -50 -43
0 6 92 98 98 98 1 0 2 -1 2 -3z m-640 -31 c0 -2 -11 -11 -25 -20 -14 -9 -25
-13 -25 -8 0 5 10 14 23 20 27 13 27 13 27 8z"/>
<path d="M1715 1890 c-3 -5 -2 -10 4 -10 5 0 13 5 16 10 3 6 2 10 -4 10 -5 0
-13 -4 -16 -10z"/>
<path d="M2828 2194 c-59 -49 -109 -104 -119 -132 -7 -17 -4 -36 11 -69 11
-25 20 -56 20 -68 0 -12 25 -83 56 -156 31 -74 62 -149 68 -166 18 -49 23 -48
20 4 -1 31 -20 89 -52 163 -27 63 -53 126 -57 140 -16 51 22 1 51 -68 15 -37
45 -95 65 -129 21 -35 41 -73 44 -85 4 -13 11 -27 15 -33 12 -15 47 -79 108
-195 30 -58 71 -132 90 -165 19 -33 53 -94 75 -135 22 -41 63 -115 92 -165 29
-49 70 -124 92 -165 77 -145 183 -280 263 -336 l54 -38 -24 39 c-13 22 -41 66
-62 97 -43 64 -44 68 -23 68 8 0 15 -7 15 -15 0 -8 6 -15 13 -15 6 0 26 -22
43 -48 17 -26 46 -56 64 -66 20 -11 30 -14 25 -6 -6 10 -4 12 8 7 10 -4 17 -2
17 4 0 6 7 9 15 5 21 -8 19 11 -5 41 -30 38 -24 51 8 20 15 -15 33 -27 39 -27
21 0 21 25 -1 50 -18 21 -16 21 10 -3 29 -26 33 -27 48 -12 15 16 14 19 -13
53 -17 21 -49 57 -71 82 -23 25 -49 59 -57 75 -15 29 -15 29 2 15 11 -8 42
-38 69 -65 70 -70 115 -105 132 -105 27 0 62 47 57 77 -4 24 -3 25 7 10 6 -9
16 -15 21 -11 6 4 6 11 -2 20 -14 17 2 19 21 2 12 -11 12 -10 1 4 -9 12 -10
22 -2 36 6 11 7 22 3 26 -3 4 5 3 20 -3 14 -5 28 -7 31 -4 8 8 -3 35 -27 63
-11 14 -14 19 -6 13 29 -26 33 -12 5 17 -16 16 -23 30 -17 30 7 0 15 -7 19
-16 3 -8 12 -13 20 -10 8 3 11 1 8 -4 -3 -6 3 -10 14 -10 12 0 21 -6 21 -13 0
-7 10 -14 22 -14 19 -2 14 6 -28 45 -28 26 -39 37 -25 26 47 -39 78 -55 95
-48 18 7 21 20 6 29 -15 9 -1 27 16 21 9 -3 11 0 7 11 -5 12 -2 15 10 10 14
-5 16 -2 11 19 -6 25 -5 26 25 19 36 -8 41 6 15 43 -14 20 -14 23 0 28 9 3 13
11 10 16 -4 7 6 9 29 6 36 -4 36 -4 17 14 -25 24 -25 32 -1 25 13 -3 21 2 25
15 3 13 10 19 20 15 11 -4 13 -1 9 10 -4 10 3 22 18 34 17 13 24 28 24 51 0
27 4 33 20 32 17 0 20 6 20 44 l0 44 -65 22 c-64 22 -133 55 -117 56 5 0 46
-13 92 -29 72 -26 83 -27 81 -13 -2 9 -8 17 -14 17 -6 0 -14 3 -18 8 -11 11 8
9 144 -17 12 -3 22 -3 22 0 0 6 -225 114 -237 114 -11 0 -296 132 -523 243
-118 57 -226 108 -240 112 -14 4 -36 15 -50 25 -14 9 -65 38 -115 65 -157 83
-195 106 -195 119 0 7 -19 23 -42 35 -163 88 -212 111 -232 111 -13 0 -44 11
-67 25 -24 14 -49 25 -56 25 -6 0 -31 -16 -55 -36z m1257 -1274 c10 -11 16
-20 13 -20 -3 0 -13 9 -23 20 -10 11 -16 20 -13 20 3 0 13 -9 23 -20z"/>
<path d="M1466 2071 c-3 -4 6 -6 19 -3 14 2 25 6 25 8 0 8 -39 4 -44 -5z"/>
<path d="M2350 2040 c-14 -4 -35 -5 -47 -3 -21 5 -30 -14 -39 -82 -1 -11 -3
-23 -3 -26 -1 -3 -12 -18 -25 -32 -13 -14 -32 -50 -41 -79 -15 -45 -222 -605
-492 -1328 -78 -209 -80 -215 -53 -170 25 41 23 32 -15 -73 -15 -42 -25 -80
-22 -83 10 -10 37 4 37 19 0 8 39 113 86 233 124 316 360 946 443 1184 70 201
102 272 75 168 -8 -29 -16 -62 -18 -73 -50 -240 -194 -844 -246 -1030 -23 -82
-53 -190 -66 -240 -14 -49 -27 -99 -30 -110 -12 -38 12 -1 30 48 20 55 30 58
16 6 -5 -19 -11 -45 -14 -59 -2 -14 -7 -37 -11 -51 -4 -16 -2 -30 4 -33 6 -4
11 -1 11 6 1 7 7 0 14 -17 l14 -30 15 35 c8 19 20 49 26 65 11 29 11 29 6 -10
-3 -22 -7 -56 -10 -75 l-6 -35 15 30 14 30 2 -40 c2 -39 2 -39 12 -13 9 26 10
27 27 10 10 -9 23 -26 28 -36 10 -18 11 -18 28 7 19 29 35 35 35 13 0 -7 7
-19 15 -26 13 -11 15 -8 15 13 0 14 7 33 16 41 20 21 24 20 19 -4 -2 -11 1
-22 6 -25 5 -4 7 -10 4 -15 -3 -5 4 -14 15 -20 18 -10 20 -8 20 24 0 19 4 36
10 38 10 3 14 21 25 111 9 70 25 76 18 6 -3 -27 -2 -58 2 -67 4 -9 7 -36 6
-59 -2 -25 2 -43 8 -43 6 0 10 3 10 8 -4 21 3 105 7 95 7 -16 34 -5 34 15 0 8
3 12 7 8 4 -3 6 -43 5 -88 -2 -51 1 -79 7 -73 9 10 20 93 23 172 1 24 5 43 9
43 4 0 10 12 15 27 l8 28 6 -35 c5 -22 8 -27 9 -13 2 45 16 29 18 -22 1 -28 5
-65 8 -81 4 -16 9 -48 12 -72 3 -23 10 -45 15 -48 5 -3 8 84 8 206 -1 117 1
215 4 218 3 3 6 -30 6 -74 1 -151 10 -299 19 -329 l9 -30 10 25 11 25 0 -27
c1 -15 5 -29 9 -32 10 -6 237 -9 274 -3 17 3 32 -2 42 -14 9 -11 25 -19 36
-19 39 0 39 6 -14 310 -13 80 -27 161 -30 180 -3 19 -12 71 -20 115 -8 44 -17
98 -21 120 -3 22 -14 90 -25 151 -11 61 -22 129 -25 150 -3 21 -8 50 -11 64
-7 37 -49 284 -60 355 -2 17 -7 43 -10 58 -3 16 -7 38 -9 50 -10 75 -16 108
-25 157 -6 30 -13 67 -15 81 -6 40 -36 141 -49 161 -21 35 -214 60 -286 38z
m40 -1300 c0 -27 -3 -50 -7 -50 -5 0 -6 22 -5 50 5 65 12 65 12 0z m-9 -97
c-12 -20 -14 -14 -5 12 4 9 9 14 11 11 3 -2 0 -13 -6 -23z m-4 -80 c-3 -10 -5
-2 -5 17 0 19 2 27 5 18 2 -10 2 -26 0 -35z m-267 -78 c-4 -22 -11 -62 -15
-88 -3 -27 -9 -47 -11 -44 -5 5 12 127 22 160 10 33 13 13 4 -28z m212 -80
c-2 -19 -7 -35 -11 -35 -4 0 -5 16 -3 35 2 19 7 35 11 35 4 0 5 -16 3 -35z
m39 2 c-10 -9 -11 -8 -5 6 3 10 9 15 12 12 3 -3 0 -11 -7 -18z"/>
<path d="M1330 2030 c-9 -6 -10 -10 -3 -10 6 0 15 5 18 10 8 12 4 12 -15 0z"/>
<path d="M1265 2010 c-13 -6 -15 -9 -5 -9 8 0 22 4 30 9 18 12 2 12 -25 0z"/>
<path d="M1195 1990 c-13 -5 -14 -9 -5 -9 8 0 24 4 35 9 13 5 14 9 5 9 -8 0
-24 -4 -35 -9z"/>
<path d="M1058 1943 c7 -3 16 -2 19 1 4 3 -2 6 -13 5 -11 0 -14 -3 -6 -6z"/>
<path d="M695 1843 c-11 -3 -24 -9 -29 -14 -5 -5 5 -4 24 1 51 15 55 25 5 13z"/>
<path d="M538 1793 c6 -2 18 -2 25 0 6 3 1 5 -13 5 -14 0 -19 -2 -12 -5z"/>
<path d="M383 1750 c-13 -5 -23 -11 -23 -14 0 -7 40 6 46 15 6 10 6 10 -23 -1z"/>
<path d="M3945 1700 c17 -11 35 -20 40 -20 6 0 -3 9 -20 20 -16 11 -34 20 -40
20 -5 0 4 -9 20 -20z"/>
<path d="M119 1663 c-13 -17 -13 -17 6 -3 11 8 22 16 24 17 2 2 0 3 -6 3 -6 0
-17 -8 -24 -17z"/>
<path d="M2900 1515 c0 -5 5 -17 10 -25 5 -8 10 -10 10 -5 0 6 -5 17 -10 25
-5 8 -10 11 -10 5z"/>
<path d="M3001 1274 c0 -11 3 -14 6 -6 3 7 2 16 -1 19 -3 4 -6 -2 -5 -13z"/>
<path d="M3021 1224 c0 -11 3 -14 6 -6 3 7 2 16 -1 19 -3 4 -6 -2 -5 -13z"/>
<path d="M1592 1023 c-12 -20 -21 -37 -19 -40 3 -2 15 12 27 32 29 47 22 53
-8 8z"/>
<path d="M3216 747 c3 -10 9 -15 12 -12 3 3 0 11 -7 18 -10 9 -11 8 -5 -6z"/>
<path d="M3280 580 c0 -5 5 -10 11 -10 5 0 7 5 4 10 -3 6 -8 10 -11 10 -2 0
-4 -4 -4 -10z"/>
<path d="M2042 160 c0 -14 2 -19 5 -12 2 6 2 18 0 25 -3 6 -5 1 -5 -13z"/>
</g>
</svg>
