<?xml version="1.0" encoding="UTF-8"?>
<svg xmlns="http://www.w3.org/2000/svg" version="1.1" viewBox="0 0 96.58 18.76">
  <defs>
    <style>
      .cls-1 {
        fill: #11163f;
      }
    </style>
  </defs>
  <!-- Generator: Adobe Illustrator 28.7.1, SVG Export Plug-In . SVG Version: 1.2.0 Build 142)  -->
  <g>
    <g id="Layer_1">
      <circle class="cls-1" cx="1.93" cy="1.93" r="1.93"/>
      <circle class="cls-1" cx="6.8" cy="1.93" r="1.93"/>
      <circle class="cls-1" cx="11.66" cy="1.93" r="1.93"/>
      <circle class="cls-1" cx="16.52" cy="1.93" r="1.93"/>
      <circle class="cls-1" cx="21.39" cy="1.93" r="1.93"/>
      <circle class="cls-1" cx="26.25" cy="1.93" r="1.93"/>
      <circle class="cls-1" cx="31.12" cy="1.93" r="1.93"/>
      <circle class="cls-1" cx="35.98" cy="1.93" r="1.93"/>
      <circle class="cls-1" cx="40.85" cy="1.93" r="1.93"/>
      <circle class="cls-1" cx="45.71" cy="1.93" r="1.93"/>
      <circle class="cls-1" cx="50.58" cy="1.93" r="1.93"/>
      <circle class="cls-1" cx="55.44" cy="1.93" r="1.93"/>
      <circle class="cls-1" cx="60.3" cy="1.93" r="1.93"/>
      <circle class="cls-1" cx="65.17" cy="1.93" r="1.93"/>
      <circle class="cls-1" cx="70.03" cy="1.93" r="1.93"/>
      <circle class="cls-1" cx="74.9" cy="1.93" r="1.93"/>
      <circle class="cls-1" cx="79.76" cy="1.93" r="1.93"/>
      <circle class="cls-1" cx="84.63" cy="1.93" r="1.93"/>
      <circle class="cls-1" cx="89.49" cy="1.93" r="1.93"/>
      <circle class="cls-1" cx="94.36" cy="1.93" r="1.93"/>
      <circle class="cls-1" cx="1.93" cy="7.04" r="1.93"/>
      <circle class="cls-1" cx="6.8" cy="7.04" r="1.93"/>
      <circle class="cls-1" cx="11.66" cy="7.04" r="1.93"/>
      <circle class="cls-1" cx="16.52" cy="7.04" r="1.93"/>
      <circle class="cls-1" cx="21.39" cy="7.04" r="1.93"/>
      <circle class="cls-1" cx="26.25" cy="7.04" r="1.93"/>
      <circle class="cls-1" cx="31.12" cy="7.04" r="1.93"/>
      <circle class="cls-1" cx="35.98" cy="7.04" r="1.93"/>
      <circle class="cls-1" cx="40.85" cy="7.04" r="1.93"/>
      <circle class="cls-1" cx="45.71" cy="7.04" r="1.93"/>
      <circle class="cls-1" cx="50.58" cy="7.04" r="1.93"/>
      <circle class="cls-1" cx="55.44" cy="7.04" r="1.93"/>
      <circle class="cls-1" cx="60.3" cy="7.04" r="1.93"/>
      <circle class="cls-1" cx="65.17" cy="7.04" r="1.93"/>
      <circle class="cls-1" cx="70.03" cy="7.04" r="1.93"/>
      <circle class="cls-1" cx="74.9" cy="7.04" r="1.93"/>
      <circle class="cls-1" cx="79.76" cy="7.04" r="1.93"/>
      <circle class="cls-1" cx="84.63" cy="7.04" r="1.93"/>
      <circle class="cls-1" cx="89.49" cy="7.04" r="1.93"/>
      <circle class="cls-1" cx="94.36" cy="7.04" r="1.93"/>
      <circle class="cls-1" cx="1.93" cy="11.93" r="1.93"/>
      <circle class="cls-1" cx="6.8" cy="11.93" r="1.93"/>
      <circle class="cls-1" cx="11.66" cy="11.93" r="1.93"/>
      <circle class="cls-1" cx="16.52" cy="11.93" r="1.93"/>
      <circle class="cls-1" cx="21.39" cy="11.93" r="1.93"/>
      <circle class="cls-1" cx="26.25" cy="11.93" r="1.93"/>
      <circle class="cls-1" cx="31.12" cy="11.93" r="1.93"/>
      <circle class="cls-1" cx="35.98" cy="11.93" r="1.93"/>
      <circle class="cls-1" cx="40.85" cy="11.93" r="1.93"/>
      <circle class="cls-1" cx="45.71" cy="11.93" r="1.93"/>
      <circle class="cls-1" cx="50.58" cy="11.93" r="1.93"/>
      <circle class="cls-1" cx="55.44" cy="11.93" r="1.93"/>
      <circle class="cls-1" cx="60.3" cy="11.93" r="1.93"/>
      <circle class="cls-1" cx="65.17" cy="11.93" r="1.93"/>
      <circle class="cls-1" cx="70.03" cy="11.93" r="1.93"/>
      <circle class="cls-1" cx="74.9" cy="11.93" r="1.93"/>
      <circle class="cls-1" cx="79.76" cy="11.93" r="1.93"/>
      <circle class="cls-1" cx="84.63" cy="11.93" r="1.93"/>
      <circle class="cls-1" cx="89.49" cy="11.93" r="1.93"/>
      <circle class="cls-1" cx="94.36" cy="11.93" r="1.93"/>
      <circle class="cls-1" cx="2.22" cy="16.82" r="1.93"/>
      <circle class="cls-1" cx="7.09" cy="16.82" r="1.93"/>
      <circle class="cls-1" cx="11.95" cy="16.82" r="1.93"/>
      <circle class="cls-1" cx="16.81" cy="16.82" r="1.93"/>
      <circle class="cls-1" cx="21.68" cy="16.82" r="1.93"/>
      <circle class="cls-1" cx="26.54" cy="16.82" r="1.93"/>
      <circle class="cls-1" cx="31.41" cy="16.82" r="1.93"/>
      <circle class="cls-1" cx="36.27" cy="16.82" r="1.93"/>
      <circle class="cls-1" cx="41.14" cy="16.82" r="1.93"/>
      <circle class="cls-1" cx="46" cy="16.82" r="1.93"/>
      <circle class="cls-1" cx="50.87" cy="16.82" r="1.93"/>
      <circle class="cls-1" cx="55.73" cy="16.82" r="1.93"/>
      <circle class="cls-1" cx="60.59" cy="16.82" r="1.93"/>
      <circle class="cls-1" cx="65.46" cy="16.82" r="1.93"/>
      <circle class="cls-1" cx="70.32" cy="16.82" r="1.93"/>
      <circle class="cls-1" cx="75.19" cy="16.82" r="1.93"/>
      <circle class="cls-1" cx="80.05" cy="16.82" r="1.93"/>
      <circle class="cls-1" cx="84.92" cy="16.82" r="1.93"/>
      <circle class="cls-1" cx="89.78" cy="16.82" r="1.93"/>
      <circle class="cls-1" cx="94.65" cy="16.82" r="1.93"/>
    </g>
  </g>
</svg>