<svg xmlns="http://www.w3.org/2000/svg" viewBox="0 0 352.42 15.06"><g id="Layer_11" data-name="Layer 11"><path d="M11.36,0h4.05V15.06H11.75l-6.29-9v9h-4V0H5.49l5.87,8.39Z"/><path d="M18.74,15.06V0H29.86l0,3.35h-7v2.5h5.87V9.12h-5.9v2.56h7.09v3.38Z"/><path d="M51.68,0,47.19,15.06h-3l-2.4-8.19-2.39,8.19h-3L31.86,0h3.91l2.34,8.08L40.36,0h2.83l2.33,8.08L47.77,0Z"/><path d="M71.83,0,66.75,15.06H62.29L57.21,0H61l3.49,10.31L68,0Z"/><path d="M70.73,15.06,76.06,0H80.2l5.33,15.06h-4l-1-2.92H75.79l-1,2.92Zm5.91-6.38h3L78.14,3.87Z"/><path d="M100.29,15.06H96.13L94,9.87H91.82v5.19h-4V0H94.6a6.59,6.59,0,0,1,3.15.65,3.93,3.93,0,0,1,1.73,1.74A5.36,5.36,0,0,1,100,4.85a5.8,5.8,0,0,1-.31,2,4.49,4.49,0,0,1-.84,1.39,5.5,5.5,0,0,1-1.24,1ZM94.14,6.85a1.62,1.62,0,0,0,1.3-.61A2.08,2.08,0,0,0,96,4.89a1.79,1.79,0,0,0-.57-1.33A1.7,1.7,0,0,0,94.14,3H91.82V6.85Z"/><path d="M103.15,0h4V15.06h-4Z"/><path d="M117.32,15.26a7.54,7.54,0,0,1-3.88-.95,6.42,6.42,0,0,1-2.53-2.68,8.69,8.69,0,0,1-.9-4.07,8.7,8.7,0,0,1,.91-4.1A6.69,6.69,0,0,1,113.48.75a8.12,8.12,0,0,1,7.66,0,6.64,6.64,0,0,1,2.54,2.71,8.7,8.7,0,0,1,.91,4.1,8.8,8.8,0,0,1-.89,4.06,6.45,6.45,0,0,1-2.53,2.69A7.45,7.45,0,0,1,117.32,15.26Zm0-3.24a2.6,2.6,0,0,0,1.48-.43,2.68,2.68,0,0,0,1-1.38,7.33,7.33,0,0,0,.37-2.59,7.85,7.85,0,0,0-.37-2.68,2.84,2.84,0,0,0-1-1.45,2.66,2.66,0,0,0-3,0,2.91,2.91,0,0,0-1,1.45,7.85,7.85,0,0,0-.37,2.68,7.33,7.33,0,0,0,.37,2.59,2.74,2.74,0,0,0,1,1.38A2.57,2.57,0,0,0,117.32,12Z"/><path d="M139.91,15.06h-4.15l-2.19-5.19h-2.12v5.19h-4V0h6.83a6.65,6.65,0,0,1,3.15.65,4,4,0,0,1,1.73,1.74,5.49,5.49,0,0,1,.54,2.46,5.81,5.81,0,0,1-.3,2,4.33,4.33,0,0,1-.85,1.39,5.67,5.67,0,0,1-1.23,1Zm-6.14-8.21a1.63,1.63,0,0,0,1.3-.61,2.07,2.07,0,0,0,.51-1.35A1.81,1.81,0,0,0,135,3.56,1.72,1.72,0,0,0,133.77,3h-2.32V6.85Z"/><path d="M155.25,8.83a8.5,8.5,0,0,1-.62,3.36,4.55,4.55,0,0,1-2,2.26,9.53,9.53,0,0,1-7.69,0,4.61,4.61,0,0,1-2-2.26,8.5,8.5,0,0,1-.61-3.36V0h4.1V9a2.86,2.86,0,0,0,.72,2.21,2.4,2.4,0,0,0,1.67.66,2.47,2.47,0,0,0,1.17-.29,2.12,2.12,0,0,0,.89-.91A3.61,3.61,0,0,0,151.15,9V0h4.1Z"/><path d="M158.3,15.06V0h6l2.43,9.18L169.21,0h6V15.06h-4.06V4.14l-2.94,10.92H165.3l-3-10.92V15.06Z"/><path d="M193.8,10.73a4.11,4.11,0,0,1-.3,1.48,5.11,5.11,0,0,1-.91,1.5,4.52,4.52,0,0,1-1.53,1.17,4.85,4.85,0,0,1-2.14.45,5.81,5.81,0,0,1-2.38-.52,5.27,5.27,0,0,1-2-1.56,6.09,6.09,0,0,0-.46,1.53h-1V9.62h1a10.43,10.43,0,0,0,.77,2.09,5,5,0,0,0,1.39,1.68,3.43,3.43,0,0,0,2.19.71,2.61,2.61,0,0,0,1.82-.62,2,2,0,0,0,.69-1.57,2,2,0,0,0-.21-.94,2.59,2.59,0,0,0-.62-.72A6.83,6.83,0,0,0,189,9.58c-.47-.25-1-.5-1.59-.77a13.29,13.29,0,0,1-2.25-1.3,6.21,6.21,0,0,1-1.32-1.27,3.9,3.9,0,0,1-.63-1.18,3.9,3.9,0,0,1-.17-1.12,4.05,4.05,0,0,1,.55-2A4.3,4.3,0,0,1,185.19.33a4.63,4.63,0,0,1,2.43-.63,4.57,4.57,0,0,1,2,.47,5.2,5.2,0,0,1,1.65,1.3,6.29,6.29,0,0,0,.37-1.31h1.05v4.2h-1.05Q190.55.92,187.79.93a2.38,2.38,0,0,0-1.61.52,1.75,1.75,0,0,0-.6,1.37A1.83,1.83,0,0,0,186,4a3.44,3.44,0,0,0,1,.83c.41.23,1.08.56,2,1a26.43,26.43,0,0,1,2.61,1.37,5.79,5.79,0,0,1,1.59,1.45A3.52,3.52,0,0,1,193.8,10.73Z"/><path d="M213,15.06h-7.42V14a3.59,3.59,0,0,0,1.38-.2,1,1,0,0,0,.6-.58,3,3,0,0,0,.13-1V7.72h-7v4.53a2,2,0,0,0,.39,1.36,2.55,2.55,0,0,0,1.78.42v1h-7.48V14a3.56,3.56,0,0,0,1.38-.2,1,1,0,0,0,.61-.57,3.06,3.06,0,0,0,.14-1V2.77a2.93,2.93,0,0,0-.13-1,1.08,1.08,0,0,0-.59-.58A3.56,3.56,0,0,0,195.35,1V0h7.48V1a2.6,2.6,0,0,0-1.77.41,1.92,1.92,0,0,0-.4,1.37V6.49h7V2.77a3.25,3.25,0,0,0-.12-1A1,1,0,0,0,207,1.2,3.6,3.6,0,0,0,205.55,1V0H213V1a3.6,3.6,0,0,0-1.41.21,1.06,1.06,0,0,0-.58.58,3.2,3.2,0,0,0-.13,1v9.48a3.26,3.26,0,0,0,.12,1,1,1,0,0,0,.58.58A3.48,3.48,0,0,0,213,14Z"/><path d="M229,15.06h-7.11V14a4.6,4.6,0,0,0,1.31-.13.56.56,0,0,0,.42-.6,1.88,1.88,0,0,0-.14-.68l-.71-1.78H217.9l-.37,1a3.8,3.8,0,0,0-.31,1.19.78.78,0,0,0,.51.84,3.71,3.71,0,0,0,1.21.18v1h-5.19V14a2.26,2.26,0,0,0,1.05-.23,2.33,2.33,0,0,0,.83-.89,11.35,11.35,0,0,0,.85-1.84L220.83-.32h1.06l4.59,11.75c.34.83.58,1.39.74,1.68a1.62,1.62,0,0,0,.64.68A2.33,2.33,0,0,0,229,14Zm-6.63-5.31-2.08-5.26-2,5.26Z"/><path d="M247.36,15.06H239V14h.68a4.41,4.41,0,0,0,1.18-.1.4.4,0,0,0,.32-.38,4.57,4.57,0,0,0-.91-1.67L237,7.31,235.1,9v3.26a1.8,1.8,0,0,0,.45,1.39,2.79,2.79,0,0,0,1.74.39v1h-7.55V14a3.64,3.64,0,0,0,1.43-.2,1,1,0,0,0,.6-.57,2.75,2.75,0,0,0,.14-1V2.77a3.27,3.27,0,0,0-.12-1,1.05,1.05,0,0,0-.6-.57A3.79,3.79,0,0,0,229.74,1V0h7.55V1a2.72,2.72,0,0,0-1.79.4,1.91,1.91,0,0,0-.4,1.38V7.31l4.69-4.1a5.13,5.13,0,0,0,.71-.73,1.14,1.14,0,0,0,.23-.69c0-.53-.51-.8-1.53-.8V0h6.89V1a9.89,9.89,0,0,0-1.31.19,3.61,3.61,0,0,0-1,.4,8.63,8.63,0,0,0-1.05.74c-.38.3-1,.81-1.79,1.52l-1.58,1.37,4.45,6.34A13.56,13.56,0,0,0,245,13.06a2.85,2.85,0,0,0,1,.72,4.1,4.1,0,0,0,1.38.25Z"/><path d="M261.37,10.09l-.12,5H247.81V14a2.66,2.66,0,0,0,1.79-.4,1.91,1.91,0,0,0,.4-1.38V2.77a3.27,3.27,0,0,0-.12-1,1.05,1.05,0,0,0-.6-.57A3.87,3.87,0,0,0,247.81,1V0h12.52l.2,3.92h-1a5.28,5.28,0,0,0-.8-1.87,1.89,1.89,0,0,0-1-.69A8.65,8.65,0,0,0,256,1.2h-2.82V6.53h1.53a3.52,3.52,0,0,0,1.18-.14.89.89,0,0,0,.55-.52,4.62,4.62,0,0,0,.21-1.23h1.07v5h-1a3.6,3.6,0,0,0-.22-1.23,1,1,0,0,0-.56-.53,3.87,3.87,0,0,0-1.18-.13h-1.55v3.55c0,.59,0,1,0,1.3a1.41,1.41,0,0,0,.24.68,1.07,1.07,0,0,0,.63.4,5.08,5.08,0,0,0,1.26.12h1.21a5.36,5.36,0,0,0,1.46-.19,2.84,2.84,0,0,0,1.36-1,5.17,5.17,0,0,0,.94-2.53Z"/><path d="M274.28,10.73a4.11,4.11,0,0,1-.3,1.48,4.91,4.91,0,0,1-.91,1.5,4.52,4.52,0,0,1-1.53,1.17,4.77,4.77,0,0,1-2.13.45,5.86,5.86,0,0,1-2.39-.52,5.27,5.27,0,0,1-2-1.56,5.66,5.66,0,0,0-.45,1.53h-1V9.62h1a10.4,10.4,0,0,0,.76,2.09,5,5,0,0,0,1.39,1.68,3.45,3.45,0,0,0,2.2.71,2.64,2.64,0,0,0,1.82-.62,2.06,2.06,0,0,0,.68-1.57,2,2,0,0,0-.21-.94,2.55,2.55,0,0,0-.61-.72,7.49,7.49,0,0,0-1.1-.67c-.46-.25-1-.5-1.58-.77a12.54,12.54,0,0,1-2.25-1.3,6.05,6.05,0,0,1-1.33-1.27,3.85,3.85,0,0,1-.62-1.18,3.59,3.59,0,0,1-.18-1.12,4.05,4.05,0,0,1,.55-2A4.3,4.3,0,0,1,265.67.33a4.69,4.69,0,0,1,2.44-.63,4.56,4.56,0,0,1,2,.47,5.24,5.24,0,0,1,1.66,1.3,7.09,7.09,0,0,0,.36-1.31h1.05v4.2h-1.05Q271,.92,268.27.93a2.38,2.38,0,0,0-1.61.52,1.75,1.75,0,0,0-.6,1.37A1.78,1.78,0,0,0,266.44,4a3.27,3.27,0,0,0,1,.83c.41.23,1.08.56,2,1A26.43,26.43,0,0,1,272,7.15a5.52,5.52,0,0,1,1.59,1.45A3.52,3.52,0,0,1,274.28,10.73Z"/><path d="M289.33,4a3.51,3.51,0,0,1-1.14,2.82A5.67,5.67,0,0,1,285.49,8a19.07,19.07,0,0,1-3.27.27h-1v3.94a2.86,2.86,0,0,0,.15,1,1,1,0,0,0,.62.55,4.1,4.1,0,0,0,1.46.19v1h-7.59V14a3.68,3.68,0,0,0,1.43-.2,1,1,0,0,0,.6-.57,3,3,0,0,0,.14-1V2.73a3.3,3.3,0,0,0-.13-1,1.05,1.05,0,0,0-.6-.57,4,4,0,0,0-1.44-.2v-1l4.31-.11.72,0h2.17a20.76,20.76,0,0,1,2.55.26,5.78,5.78,0,0,1,2.47,1.12A3.3,3.3,0,0,1,289.33,4Zm-3.42,0a2.53,2.53,0,0,0-1.06-2.41A5.53,5.53,0,0,0,282.09,1l-.87,0V7.08h1a5.44,5.44,0,0,0,2.64-.56C285.57,6.14,285.91,5.31,285.91,4Z"/><path d="M304.1,10.09l-.13,5H290.53V14a2.71,2.71,0,0,0,1.8-.4,2,2,0,0,0,.4-1.38V2.77a3.23,3.23,0,0,0-.13-1,1.05,1.05,0,0,0-.6-.57A3.87,3.87,0,0,0,290.53,1V0h12.52l.2,3.92h-1a5.28,5.28,0,0,0-.8-1.87,1.89,1.89,0,0,0-1-.69,8.58,8.58,0,0,0-1.69-.13h-2.82V6.53h1.53a3.52,3.52,0,0,0,1.18-.14.89.89,0,0,0,.55-.52,4.62,4.62,0,0,0,.21-1.23h1.07v5h-1a3.6,3.6,0,0,0-.22-1.23.94.94,0,0,0-.56-.53,3.83,3.83,0,0,0-1.17-.13h-1.56v3.55c0,.59,0,1,0,1.3a1.41,1.41,0,0,0,.24.68,1.06,1.06,0,0,0,.64.4,5,5,0,0,0,1.25.12h1.21a5.36,5.36,0,0,0,1.46-.19,2.86,2.86,0,0,0,1.37-1,5.28,5.28,0,0,0,.93-2.53Z"/><path d="M320.41,15.06H313.3V14a4.6,4.6,0,0,0,1.31-.13.56.56,0,0,0,.41-.6,1.86,1.86,0,0,0-.13-.68l-.71-1.78h-4.9l-.37,1A4.11,4.11,0,0,0,308.6,13a.79.79,0,0,0,.52.84,3.67,3.67,0,0,0,1.21.18v1h-5.2V14a2.27,2.27,0,0,0,1.06-.23,2.41,2.41,0,0,0,.83-.89,12.28,12.28,0,0,0,.85-1.84L312.22-.32h1.06l4.59,11.75c.33.83.58,1.39.73,1.68a1.71,1.71,0,0,0,.65.68,2.31,2.31,0,0,0,1.16.24Zm-6.63-5.31L311.7,4.49l-2,5.26Z"/><path d="M337.47,15.06h-4a7.4,7.4,0,0,1-.56-.72c-.21-.31-.45-.67-.71-1.09l-.65-1-1-1.69a15,15,0,0,0-1-1.56,1.64,1.64,0,0,0-.8-.53,6.71,6.71,0,0,0-1.53-.12h-.57v3.94a3,3,0,0,0,.13,1,1,1,0,0,0,.63.58,3.87,3.87,0,0,0,1.44.2v1H321.2V14a2.61,2.61,0,0,0,1.77-.4,2,2,0,0,0,.4-1.38V2.73A2,2,0,0,0,323,1.35,2.61,2.61,0,0,0,321.2,1v-1l3.49-.11.92,0h1c.23,0,.61,0,1.15,0,.75,0,1.45.07,2.1.13a9.65,9.65,0,0,1,1.55.26,5.17,5.17,0,0,1,1.58.7,3.87,3.87,0,0,1,1.22,1.29A3.53,3.53,0,0,1,334.65,4a3.49,3.49,0,0,1-.33,1.47,3.48,3.48,0,0,1-1.06,1.27,5.35,5.35,0,0,1-1.92.87,5.12,5.12,0,0,1,1.38,1.19c.38.47,1,1.34,1.78,2.6.47.72.86,1.26,1.16,1.63a2.84,2.84,0,0,0,.84.74,2.6,2.6,0,0,0,1,.25ZM331.22,4a2.47,2.47,0,0,0-1.09-2.4A6.12,6.12,0,0,0,327.26,1h-.7V7.08h.7a6.42,6.42,0,0,0,2.82-.55C330.84,6.17,331.22,5.32,331.22,4Z"/><path d="M351.58,10.09l-.12,5H338V14a2.68,2.68,0,0,0,1.79-.4,1.91,1.91,0,0,0,.4-1.38V2.77a3,3,0,0,0-.13-1,1,1,0,0,0-.6-.57A3.78,3.78,0,0,0,338,1V0h12.52l.2,3.92h-1A5.3,5.3,0,0,0,348.92,2a1.87,1.87,0,0,0-1-.69,8.46,8.46,0,0,0-1.68-.13h-2.83V6.53h1.54a3.56,3.56,0,0,0,1.18-.14.85.85,0,0,0,.54-.52,3.92,3.92,0,0,0,.21-1.23h1.07v5h-1a3.87,3.87,0,0,0-.22-1.23,1,1,0,0,0-.57-.53A3.75,3.75,0,0,0,345,7.77h-1.56v3.55c0,.59,0,1,.05,1.3a1.41,1.41,0,0,0,.24.68,1.07,1.07,0,0,0,.63.4,5,5,0,0,0,1.25.12h1.21a5.44,5.44,0,0,0,1.47-.19,2.84,2.84,0,0,0,1.36-1,5.17,5.17,0,0,0,.94-2.53Z"/></g></svg>