<svg id="logo-w-type-svg" xmlns="http://www.w3.org/2000/svg" xmlns:xlink="http://www.w3.org/1999/xlink" viewBox="0 0 189 280">
  <defs>
    <clipPath id="clip-path">
      <path d="M363.77,86.33l.06-.54h25.91V3.2H288.12a76,76,0,0,0-48.4,134.63c0,.17-.05.35-.06.53H213.75V221H315.37a76,76,0,0,0,48.4-134.62Z" fill="none"/>
    </clipPath>
    <clipPath id="clip-path-2">
      <path d="M155.77,86.33l.06-.54h25.91V3.2H80.12a76,76,0,0,0-48.4,134.63c0,.17,0,.35-.06.53H5.75V221H107.37a76,76,0,0,0,48.4-134.62Z" fill="none"/>
    </clipPath>
  </defs>
  <g id="logo">
    <g clip-path="url(#clip-path)">
      <g>
        <rect x="316.91" y="-17.16" width="0.58" height="311.1" transform="translate(38.75 343.9) rotate(-60)" fill="#fff"/>
        <rect x="161.65" y="138.1" width="311.1" height="0.58" fill="#fff"/>
        <rect x="161.65" y="138.1" width="311.1" height="0.58" transform="translate(-26.69 177.26) rotate(-30.02)" fill="#fff"/>
        <rect x="286.35" y="-69.5" width="0.58" height="311.1" transform="translate(68.8 291.26) rotate(-60)" fill="#fff"/>
        <rect x="227.46" y="-171.36" width="0.58" height="309.92" transform="translate(127.96 188.98) rotate(-59.97)" fill="#fff"/>
        <rect x="131.09" y="85.76" width="311.1" height="0.58" fill="#fff"/>
        <rect x="131.09" y="85.76" width="311.1" height="0.58" transform="translate(-4.6 154.95) rotate(-30.02)" fill="#fff"/>
      </g>
    </g>
    <g>
      <g clip-path="url(#clip-path-2)">
        <g>
          <path d="M156,86.47c0-.17,0-.35.06-.53h25.9V3.34H80.83v0l-.54,0A76,76,0,0,0,31.89,138c0,.18,0,.36-.06.53H5.92v82.6H107.55A76,76,0,0,0,156,86.47Z" fill="#0066a5"/>
          <rect x="108.91" y="-17.16" width="0.58" height="311.1" fill="#fff"/>
          <rect x="108.91" y="-17.16" width="0.58" height="311.1" transform="translate(-65.25 163.77) rotate(-60)" fill="#fff"/>
          <rect x="108.9" y="-17.15" width="0.58" height="311.1" transform="translate(-54.57 73.14) rotate(-30)" fill="#fff"/>
          <rect x="-46.35" y="138.1" width="311.1" height="0.58" fill="#fff"/>
          <rect x="-46.35" y="138.1" width="311.1" height="0.58" transform="translate(-54.59 73.2) rotate(-30.02)" fill="#fff"/>
          <rect x="-29.79" y="166.45" width="244.37" height="0.58" transform="translate(-98.18 162.6) rotate(-59.76)" fill="#fff"/>
          <rect x="78.35" y="-69.5" width="0.58" height="311.1" fill="#fff"/>
          <rect x="78.35" y="-69.5" width="0.58" height="311.1" transform="translate(-35.2 111.13) rotate(-60)" fill="#fff"/>
          <rect x="19.46" y="-171.36" width="0.58" height="309.92" transform="translate(24.06 8.9) rotate(-59.97)" fill="#fff"/>
          <rect x="166.72" y="89.92" width="0.58" height="311.1" transform="translate(-129.08 267.37) rotate(-60)" fill="#fff"/>
          <rect x="-76.91" y="85.76" width="311.1" height="0.58" fill="#fff"/>
          <rect x="-76.91" y="85.76" width="311.1" height="0.58" transform="translate(-32.5 50.89) rotate(-30.02)" fill="#fff"/>
          <rect x="-31.03" y="59.07" width="249.95" height="0.58" transform="translate(-4.14 111.6) rotate(-60.33)" fill="#fff"/>
          <polygon points="110.52 139.45 -3.48 139.45 -3.48 138.47 108.8 138.47 77.92 85.88 191.92 85.88 191.92 86.87 79.64 86.87 110.52 139.45" fill="#fff"/>
        </g>
      </g>
      <g>
        <path d="M14,238.4h4.28v15.91H14.37l-6.65-9.48v9.48H3.44V238.4H7.75L14,247.27Z"/>
        <path d="M21.76,254.31V238.4H33.51l0,3.54H26.07v2.64h6.2V248H26v2.71h7.49v3.56Z"/>
        <path d="M56.56,238.4l-4.75,15.91H48.62l-2.53-8.65-2.53,8.65H40.41L35.62,238.4h4.13l2.47,8.54,2.37-8.54h3l2.46,8.54,2.38-8.54Z"/>
        <path d="M77.85,238.4l-5.37,15.91H67.77L62.41,238.4h4l3.69,10.89L73.8,238.4Z"/>
        <path d="M76.69,254.31l5.63-15.91H86.7l5.63,15.91H88.1l-1-3.08H82L81,254.31Zm6.24-6.73h3.15l-1.56-5.09Z"/>
        <path d="M107.92,254.31h-4.39l-2.31-5.48H99v5.48H94.69V238.4h7.22a7.05,7.05,0,0,1,3.33.68,4.19,4.19,0,0,1,1.83,1.85,5.81,5.81,0,0,1,.57,2.6,6.06,6.06,0,0,1-.32,2.08,4.64,4.64,0,0,1-.89,1.48,6.47,6.47,0,0,1-1.31,1.06Zm-6.49-8.67a1.73,1.73,0,0,0,1.37-.65,2.16,2.16,0,0,0,.54-1.42,1.93,1.93,0,0,0-.59-1.41,1.86,1.86,0,0,0-1.32-.59H99v4.07Z"/>
        <path d="M110.94,238.4h4.28v15.91h-4.28Z"/>
        <path d="M125.92,254.53a8,8,0,0,1-4.1-1,6.78,6.78,0,0,1-2.68-2.83,9.24,9.24,0,0,1-1-4.3,9.13,9.13,0,0,1,1-4.33,7,7,0,0,1,2.7-2.86,7.87,7.87,0,0,1,4.06-1,7.76,7.76,0,0,1,4,1,7,7,0,0,1,2.69,2.86,10.32,10.32,0,0,1,0,8.63,6.73,6.73,0,0,1-2.66,2.83A8,8,0,0,1,125.92,254.53Zm0-3.43a2.79,2.79,0,0,0,1.56-.45,2.9,2.9,0,0,0,1.08-1.46,7.82,7.82,0,0,0,.39-2.73,8.43,8.43,0,0,0-.39-2.84,3,3,0,0,0-1.08-1.53,2.79,2.79,0,0,0-3.13,0,3.09,3.09,0,0,0-1.09,1.53,8.43,8.43,0,0,0-.39,2.84,7.82,7.82,0,0,0,.39,2.73,3,3,0,0,0,1.09,1.46A2.8,2.8,0,0,0,125.92,251.1Z"/>
        <path d="M149.79,254.31H145.4l-2.31-5.48h-2.25v5.48h-4.28V238.4h7.22a7.05,7.05,0,0,1,3.33.68,4.19,4.19,0,0,1,1.83,1.85,5.81,5.81,0,0,1,.57,2.6,6.06,6.06,0,0,1-.32,2.08,4.46,4.46,0,0,1-.89,1.48,6.21,6.21,0,0,1-1.31,1.06Zm-6.49-8.67a1.73,1.73,0,0,0,1.37-.65,2.16,2.16,0,0,0,.54-1.42,1.93,1.93,0,0,0-.59-1.41,1.86,1.86,0,0,0-1.32-.59h-2.46v4.07Z"/>
        <path d="M166,247.73a8.86,8.86,0,0,1-.65,3.55,4.89,4.89,0,0,1-2.15,2.39,10,10,0,0,1-8.13,0,4.89,4.89,0,0,1-2.15-2.39,9,9,0,0,1-.65-3.55V238.4h4.34v9.51a3,3,0,0,0,.76,2.34,2.56,2.56,0,0,0,1.77.69,2.67,2.67,0,0,0,1.24-.3,2.24,2.24,0,0,0,.93-1,3.69,3.69,0,0,0,.36-1.76V238.4H166Z"/>
        <path d="M169.22,254.31V238.4h6.35l2.58,9.71,2.6-9.71h6.33v15.91h-4.29V242.78l-3.1,11.53h-3.08l-3.11-11.53v11.53Z"/>
        <path d="M14.71,271.74a4.44,4.44,0,0,1-.32,1.57,5.54,5.54,0,0,1-1,1.59,4.89,4.89,0,0,1-1.61,1.23,5.08,5.08,0,0,1-2.26.48A6.14,6.14,0,0,1,7,276.05a5.39,5.39,0,0,1-2.12-1.64A6.35,6.35,0,0,0,4.43,276H3.35v-5.46H4.43a10.59,10.59,0,0,0,.82,2.21,5.22,5.22,0,0,0,1.46,1.79A3.66,3.66,0,0,0,9,275.3a2.73,2.73,0,0,0,1.92-.66,2.12,2.12,0,0,0,.73-1.65,2.07,2.07,0,0,0-.23-1,2.41,2.41,0,0,0-.64-.76,8.61,8.61,0,0,0-1.16-.72c-.49-.25-1.05-.52-1.68-.8a14.59,14.59,0,0,1-2.37-1.38A6.8,6.8,0,0,1,4.19,267a4.51,4.51,0,0,1-.65-1.24,3.79,3.79,0,0,1-.19-1.19,4.25,4.25,0,0,1,.58-2.11,4.61,4.61,0,0,1,1.69-1.71,4.9,4.9,0,0,1,2.56-.66,4.76,4.76,0,0,1,2.13.5A5.3,5.3,0,0,1,12.06,262a6.73,6.73,0,0,0,.39-1.39h1.11V265H12.45c-.78-2.43-2.15-3.64-4.09-3.64a2.52,2.52,0,0,0-1.7.56A1.81,1.81,0,0,0,6,263.38a1.9,1.9,0,0,0,.4,1.21,3.49,3.49,0,0,0,1,.87c.44.25,1.14.59,2.11,1.05A29.57,29.57,0,0,1,12.34,268,6.18,6.18,0,0,1,14,269.49,3.67,3.67,0,0,1,14.71,271.74Z"/>
        <path d="M35,276.31H27.12v-1.08a3.89,3.89,0,0,0,1.46-.21,1.05,1.05,0,0,0,.63-.61,3.1,3.1,0,0,0,.15-1.06v-4.78H22v4.78a2.07,2.07,0,0,0,.41,1.43,2.68,2.68,0,0,0,1.88.45v1.08h-7.9v-1.08a4,4,0,0,0,1.46-.21,1.07,1.07,0,0,0,.64-.61,3,3,0,0,0,.15-1.06v-10a3.29,3.29,0,0,0-.14-1.05,1.14,1.14,0,0,0-.62-.6,3.73,3.73,0,0,0-1.49-.23v-1.08h7.9v1.08a2.73,2.73,0,0,0-1.87.44,2,2,0,0,0-.42,1.44v3.93h7.4v-3.93a3.64,3.64,0,0,0-.13-1.05,1.09,1.09,0,0,0-.61-.6,3.76,3.76,0,0,0-1.5-.23v-1.08H35v1.08a3.68,3.68,0,0,0-1.48.23,1.09,1.09,0,0,0-.61.6,3,3,0,0,0-.14,1.05v10a3.59,3.59,0,0,0,.12,1,1.13,1.13,0,0,0,.62.62,3.77,3.77,0,0,0,1.49.23Z"/>
        <path d="M51.93,276.31H44.42v-1.08a5.13,5.13,0,0,0,1.38-.13.61.61,0,0,0,.44-.64,2,2,0,0,0-.14-.72l-.76-1.88H40.17l-.39,1a4.13,4.13,0,0,0-.33,1.26A.83.83,0,0,0,40,275a3.83,3.83,0,0,0,1.28.19v1.08H35.79v-1.08A2.22,2.22,0,0,0,36.9,275a2.41,2.41,0,0,0,.88-.93,12.33,12.33,0,0,0,.9-1.95l4.59-12h1.12l4.86,12.41c.35.88.61,1.47.77,1.78a1.82,1.82,0,0,0,.68.72,2.46,2.46,0,0,0,1.23.25Zm-7-5.6-2.2-5.57-2.09,5.57Z"/>
        <path d="M71.3,276.31H62.45v-1.08h.72a4.86,4.86,0,0,0,1.25-.11q.33-.12.33-.39a4.62,4.62,0,0,0-1-1.77l-3.42-4.83-2,1.78v3.44a1.84,1.84,0,0,0,.48,1.46,2.88,2.88,0,0,0,1.83.42v1.08h-8v-1.08A4,4,0,0,0,54.2,275a1.09,1.09,0,0,0,.64-.6,3.38,3.38,0,0,0,.14-1.07v-10a3.35,3.35,0,0,0-.13-1.06,1.09,1.09,0,0,0-.64-.6,4.1,4.1,0,0,0-1.52-.22v-1.08h8v1.08a2.79,2.79,0,0,0-1.89.43,2,2,0,0,0-.42,1.45v4.8l5-4.34a4.75,4.75,0,0,0,.75-.77,1.15,1.15,0,0,0,.23-.72c0-.56-.53-.85-1.61-.85v-1.08H70v1.08a11,11,0,0,0-1.38.2,3.88,3.88,0,0,0-1,.43,8.35,8.35,0,0,0-1.11.77c-.4.32-1,.86-1.89,1.61l-1.67,1.45,4.7,6.7a18.53,18.53,0,0,0,1.24,1.59,3,3,0,0,0,1,.76,4.09,4.09,0,0,0,1.46.27Z"/>
        <path d="M86.11,271.07,86,276.31H71.78v-1.08a2.86,2.86,0,0,0,1.89-.42,2,2,0,0,0,.43-1.46v-10a3.31,3.31,0,0,0-.14-1.06,1.1,1.1,0,0,0-.63-.6,4.24,4.24,0,0,0-1.55-.22v-1.08H85l.21,4.14H84.14a5.8,5.8,0,0,0-.84-2,2,2,0,0,0-1.07-.73,8.78,8.78,0,0,0-1.78-.13h-3v5.63h1.62a3.91,3.91,0,0,0,1.25-.15.93.93,0,0,0,.57-.56,4.46,4.46,0,0,0,.23-1.29h1.13v5.3H81.17a4,4,0,0,0-.23-1.3,1,1,0,0,0-.59-.56,4.21,4.21,0,0,0-1.24-.14H77.46v3.75c0,.63,0,1.09.05,1.38a1.44,1.44,0,0,0,.25.72,1.22,1.22,0,0,0,.67.42,5.49,5.49,0,0,0,1.32.13H81a5.63,5.63,0,0,0,1.55-.21A3,3,0,0,0,84,273.74a5.53,5.53,0,0,0,1-2.67Z"/>
        <path d="M99.75,271.74a4.44,4.44,0,0,1-.32,1.57,5.54,5.54,0,0,1-1,1.59,4.89,4.89,0,0,1-1.61,1.23,5.08,5.08,0,0,1-2.26.48,6.14,6.14,0,0,1-2.52-.56A5.39,5.39,0,0,1,90,274.41a6.35,6.35,0,0,0-.49,1.61H88.39v-5.46h1.08a10.59,10.59,0,0,0,.82,2.21,5.22,5.22,0,0,0,1.46,1.79,3.66,3.66,0,0,0,2.32.74,2.73,2.73,0,0,0,1.92-.66,2.15,2.15,0,0,0,.73-1.65,2.07,2.07,0,0,0-.23-1,2.41,2.41,0,0,0-.64-.76,8.61,8.61,0,0,0-1.16-.72c-.49-.25-1-.52-1.68-.8a14.59,14.59,0,0,1-2.37-1.38A6.8,6.8,0,0,1,89.23,267a4.86,4.86,0,0,1-.66-1.24,4.09,4.09,0,0,1-.18-1.19,4.25,4.25,0,0,1,.58-2.11,4.61,4.61,0,0,1,1.69-1.71,4.9,4.9,0,0,1,2.56-.66,4.76,4.76,0,0,1,2.13.5A5.3,5.3,0,0,1,97.1,262a7.42,7.42,0,0,0,.39-1.39H98.6V265H97.49c-.78-2.43-2.15-3.64-4.09-3.64a2.52,2.52,0,0,0-1.7.56,1.81,1.81,0,0,0-.64,1.44,1.9,1.9,0,0,0,.4,1.21,3.49,3.49,0,0,0,1.05.87c.44.25,1.14.59,2.11,1.05A29.57,29.57,0,0,1,97.38,268a6.18,6.18,0,0,1,1.68,1.54A3.67,3.67,0,0,1,99.75,271.74Z"/>
        <path d="M115.65,264.62a3.68,3.68,0,0,1-1.21,3,5.93,5.93,0,0,1-2.85,1.3,20.07,20.07,0,0,1-3.45.29h-1.06v4.16a2.88,2.88,0,0,0,.16,1.09,1.06,1.06,0,0,0,.66.59,4.47,4.47,0,0,0,1.53.2v1.08h-8v-1.08a4.08,4.08,0,0,0,1.51-.21,1.1,1.1,0,0,0,.63-.6,3.08,3.08,0,0,0,.15-1.07V263.29a3.34,3.34,0,0,0-.14-1.07,1.15,1.15,0,0,0-.64-.6,4.08,4.08,0,0,0-1.51-.21V260.3l4.55-.12h.77l.66,0H109a23.07,23.07,0,0,1,2.7.27,6.08,6.08,0,0,1,2.61,1.19A3.51,3.51,0,0,1,115.65,264.62Zm-3.62,0a2.7,2.7,0,0,0-1.11-2.55,5.88,5.88,0,0,0-2.92-.64l-.92,0v6.4h1.09a5.66,5.66,0,0,0,2.79-.59C111.68,266.89,112,266,112,264.64Z"/>
        <path d="M131.25,271.07l-.13,5.24h-14.2v-1.08a2.91,2.91,0,0,0,1.9-.42,2,2,0,0,0,.42-1.46v-10a3.31,3.31,0,0,0-.14-1.06,1.1,1.1,0,0,0-.63-.6,4.21,4.21,0,0,0-1.55-.22v-1.08h13.23l.21,4.14h-1.08a5.43,5.43,0,0,0-.84-2,2,2,0,0,0-1.07-.73,8.78,8.78,0,0,0-1.78-.13h-3v5.63h1.62a3.91,3.91,0,0,0,1.25-.15,1,1,0,0,0,.58-.56,4.53,4.53,0,0,0,.22-1.29h1.13v5.3h-1.08a3.94,3.94,0,0,0-.24-1.3,1,1,0,0,0-.59-.56,4.21,4.21,0,0,0-1.24-.14H122.6v3.75c0,.63,0,1.09.05,1.38a1.44,1.44,0,0,0,.25.72,1.22,1.22,0,0,0,.67.42,5.49,5.49,0,0,0,1.32.13h1.28a5.58,5.58,0,0,0,1.55-.21,3,3,0,0,0,1.44-1.06,5.53,5.53,0,0,0,1-2.67Z"/>
        <path d="M148.49,276.31H141v-1.08a5.13,5.13,0,0,0,1.38-.13.61.61,0,0,0,.44-.64,2,2,0,0,0-.14-.72l-.76-1.88h-5.17l-.39,1a4.13,4.13,0,0,0-.33,1.26.83.83,0,0,0,.55.89,3.83,3.83,0,0,0,1.28.19v1.08h-5.49v-1.08a2.22,2.22,0,0,0,1.11-.25,2.41,2.41,0,0,0,.88-.93,12.33,12.33,0,0,0,.9-1.95l4.59-12H141l4.86,12.41c.35.88.61,1.47.77,1.78a1.82,1.82,0,0,0,.68.72,2.46,2.46,0,0,0,1.23.25Zm-7-5.6-2.2-5.57-2.09,5.57Z"/>
        <path d="M166.52,276.31h-4.27a8.5,8.5,0,0,1-.58-.75c-.23-.33-.48-.71-.76-1.16l-.68-1.1-1.08-1.78a14.66,14.66,0,0,0-1.1-1.64,1.61,1.61,0,0,0-.85-.57,7.37,7.37,0,0,0-1.61-.12H155v4.16a3.12,3.12,0,0,0,.14,1.06,1.06,1.06,0,0,0,.66.61,4.28,4.28,0,0,0,1.52.21v1.08h-8v-1.08a2.84,2.84,0,0,0,1.88-.42,2.09,2.09,0,0,0,.41-1.46V263.29a2.08,2.08,0,0,0-.4-1.45,2.75,2.75,0,0,0-1.89-.43V260.3l3.69-.12,1,0h1c.24,0,.65,0,1.21,0,.79,0,1.53.07,2.22.14a10.48,10.48,0,0,1,1.64.27,5.77,5.77,0,0,1,1.67.74,4,4,0,0,1,1.29,1.37,3.71,3.71,0,0,1,.5,2,3.68,3.68,0,0,1-.34,1.55,3.61,3.61,0,0,1-1.12,1.34,5.89,5.89,0,0,1-2,.93,5.35,5.35,0,0,1,1.46,1.25c.4.5,1,1.41,1.88,2.75a19.28,19.28,0,0,0,1.22,1.72,2.38,2.38,0,0,0,1.92,1.05Zm-6.61-11.69a2.59,2.59,0,0,0-1.16-2.53,6.31,6.31,0,0,0-3-.62H155v6.4h.74a7,7,0,0,0,3-.57C159.51,266.92,159.91,266,159.91,264.62Z"/>
        <path d="M181.43,271.07l-.13,5.24H167.1v-1.08a2.86,2.86,0,0,0,1.89-.42,2,2,0,0,0,.42-1.46v-10a3.35,3.35,0,0,0-.13-1.06,1.09,1.09,0,0,0-.64-.6,4.18,4.18,0,0,0-1.54-.22v-1.08h13.22l.21,4.14h-1.08a5.43,5.43,0,0,0-.84-2,2,2,0,0,0-1.07-.73,8.71,8.71,0,0,0-1.78-.13h-3v5.63h1.63a3.84,3.84,0,0,0,1.24-.15.92.92,0,0,0,.58-.56,4.53,4.53,0,0,0,.22-1.29h1.13v5.3h-1.08a3.7,3.7,0,0,0-.24-1.3,1,1,0,0,0-.59-.56,4.16,4.16,0,0,0-1.24-.14h-1.65v3.75c0,.63,0,1.09,0,1.38a1.54,1.54,0,0,0,.25.72,1.22,1.22,0,0,0,.67.42,5.52,5.52,0,0,0,1.33.13h1.28a5.56,5.56,0,0,0,1.54-.21,3,3,0,0,0,1.44-1.06,5.53,5.53,0,0,0,1-2.67Z"/>
      </g>
    </g>
  </g>
</svg>
