<svg id="type-svg" xmlns="http://www.w3.org/2000/svg" xmlns:xlink="http://www.w3.org/1999/xlink" viewBox="0 0 189 44">
  <defs>
    <clipPath id="clip-path">
      <path d="M-58.23,84.33l.06-.54h25.91V1.2H-133.88a76,76,0,0,0-76,76,75.87,75.87,0,0,0,27.62,58.62c0,.17-.05.35-.06.53h-25.91V219h101.62a76,76,0,0,0,76-76A75.83,75.83,0,0,0-58.23,84.33Z" fill="none"/>
    </clipPath>
  </defs>
  <g id="logo">
    <g>
      <path d="M13.71,2.86H18V18.77H14.12L7.47,9.29v9.48H3.19V2.86H7.5l6.21,8.87Z"/>
      <path d="M21.51,18.77V2.86H33.25l0,3.55H25.82V9.05H32V12.5H25.78v2.71h7.5v3.56Z"/>
      <path d="M56.31,2.86,51.56,18.77H48.37l-2.53-8.65-2.53,8.65H40.16L35.37,2.86H39.5L42,11.4l2.37-8.54h3L49.8,11.4l2.38-8.54Z"/>
      <path d="M77.6,2.86,72.23,18.77H67.52L62.15,2.86h4l3.69,10.9,3.67-10.9Z"/>
      <path d="M76.43,18.77,82.07,2.86h4.38l5.63,15.91H87.85l-1-3.08h-5L80.7,18.77ZM82.68,12h3.15L84.27,7Z"/>
      <path d="M107.67,18.77h-4.39L101,13.29H98.72v5.48H94.44V2.86h7.22a6.93,6.93,0,0,1,3.33.69,4.17,4.17,0,0,1,1.83,1.84,5.81,5.81,0,0,1,.57,2.6,6.16,6.16,0,0,1-.32,2.09,4.7,4.7,0,0,1-.89,1.47,6.15,6.15,0,0,1-1.31,1.06Zm-6.49-8.67a1.7,1.7,0,0,0,1.37-.65A2.16,2.16,0,0,0,103.09,8a1.93,1.93,0,0,0-.59-1.41A1.86,1.86,0,0,0,101.18,6H98.72V10.1Z"/>
      <path d="M110.69,2.86H115V18.77h-4.28Z"/>
      <path d="M125.67,19a8,8,0,0,1-4.1-1,6.86,6.86,0,0,1-2.68-2.84,9.21,9.21,0,0,1-1-4.3,9.25,9.25,0,0,1,1-4.33,7.05,7.05,0,0,1,2.71-2.86,7.85,7.85,0,0,1,4.06-1,7.76,7.76,0,0,1,4,1,7,7,0,0,1,2.69,2.86,9.37,9.37,0,0,1,1,4.33,9.27,9.27,0,0,1-.94,4.3A6.82,6.82,0,0,1,129.74,18,8,8,0,0,1,125.67,19Zm0-3.43a2.79,2.79,0,0,0,1.56-.45,2.86,2.86,0,0,0,1.08-1.46,7.82,7.82,0,0,0,.39-2.73,8.47,8.47,0,0,0-.39-2.84,3.11,3.11,0,0,0-1.08-1.53,2.84,2.84,0,0,0-3.13,0A3.19,3.19,0,0,0,123,8.08a8.47,8.47,0,0,0-.39,2.84,7.82,7.82,0,0,0,.39,2.73,2.92,2.92,0,0,0,1.09,1.46A2.8,2.8,0,0,0,125.67,15.56Z"/>
      <path d="M149.54,18.77h-4.39l-2.31-5.48h-2.25v5.48h-4.28V2.86h7.22a6.93,6.93,0,0,1,3.33.69,4.17,4.17,0,0,1,1.83,1.84,5.81,5.81,0,0,1,.57,2.6,6.16,6.16,0,0,1-.32,2.09,4.7,4.7,0,0,1-.89,1.47,6.15,6.15,0,0,1-1.31,1.06Zm-6.49-8.67a1.7,1.7,0,0,0,1.37-.65A2.16,2.16,0,0,0,145,8a1.93,1.93,0,0,0-.59-1.41A1.86,1.86,0,0,0,143.05,6h-2.46V10.1Z"/>
      <path d="M165.74,12.19a8.94,8.94,0,0,1-.65,3.56,4.87,4.87,0,0,1-2.15,2.38,10,10,0,0,1-8.13,0,4.87,4.87,0,0,1-2.15-2.38,9.12,9.12,0,0,1-.65-3.56V2.86h4.34v9.51a3,3,0,0,0,.76,2.34,2.57,2.57,0,0,0,1.77.7,2.61,2.61,0,0,0,1.23-.31,2.21,2.21,0,0,0,.94-1,3.69,3.69,0,0,0,.36-1.76V2.86h4.33Z"/>
      <path d="M169,18.77V2.86h6.35l2.58,9.71,2.59-9.71h6.34V18.77h-4.29V7.24l-3.1,11.53h-3.08L173.24,7.24V18.77Z"/>
      <path d="M14.46,36.2a4.4,4.4,0,0,1-.32,1.57,5.54,5.54,0,0,1-1,1.59,4.89,4.89,0,0,1-1.61,1.23,5.08,5.08,0,0,1-2.26.48,6.29,6.29,0,0,1-2.52-.55,5.5,5.5,0,0,1-2.12-1.65,6.07,6.07,0,0,0-.49,1.61H3.1V35H4.18A11.4,11.4,0,0,0,5,37.24,5.34,5.34,0,0,0,6.46,39a3.66,3.66,0,0,0,2.32.74,2.73,2.73,0,0,0,1.92-.66,2.13,2.13,0,0,0,.72-1.65,2.07,2.07,0,0,0-.22-1,2.52,2.52,0,0,0-.64-.76A8.61,8.61,0,0,0,9.4,35c-.49-.25-1.05-.52-1.68-.8A13.27,13.27,0,0,1,5.35,32.8a6.8,6.8,0,0,1-1.41-1.34,4.56,4.56,0,0,1-.66-1.24A4,4,0,0,1,3.1,29a4.25,4.25,0,0,1,.58-2.11,4.49,4.49,0,0,1,1.68-1.7,4.88,4.88,0,0,1,2.57-.67,4.76,4.76,0,0,1,2.13.5,5.3,5.3,0,0,1,1.75,1.37A7.42,7.42,0,0,0,12.2,25h1.11v4.45H12.2c-.78-2.42-2.15-3.64-4.09-3.64a2.51,2.51,0,0,0-1.7.56,1.83,1.83,0,0,0-.64,1.44,1.88,1.88,0,0,0,.4,1.21,3.49,3.49,0,0,0,1,.87c.44.25,1.14.6,2.11,1a29.25,29.25,0,0,1,2.76,1.45A5.88,5.88,0,0,1,13.77,34,3.64,3.64,0,0,1,14.46,36.2Z"/>
      <path d="M34.71,40.77H26.87V39.69a3.92,3.92,0,0,0,1.46-.21,1,1,0,0,0,.63-.61,3.12,3.12,0,0,0,.14-1.06V33H21.71v4.78a2.12,2.12,0,0,0,.41,1.44,2.74,2.74,0,0,0,1.88.44v1.08H16.1V39.69a4,4,0,0,0,1.46-.21,1.09,1.09,0,0,0,.64-.6,3.12,3.12,0,0,0,.15-1.07v-10a3.31,3.31,0,0,0-.14-1.06,1.13,1.13,0,0,0-.63-.6,3.68,3.68,0,0,0-1.48-.22V24.83H24v1.09a2.74,2.74,0,0,0-1.87.43,2,2,0,0,0-.42,1.45v3.92H29.1V27.8A3.72,3.72,0,0,0,29,26.74a1.08,1.08,0,0,0-.62-.6,3.7,3.7,0,0,0-1.49-.22V24.83h7.84v1.09a3.71,3.71,0,0,0-1.48.22,1.11,1.11,0,0,0-.62.6,3.35,3.35,0,0,0-.13,1.06v10a3.54,3.54,0,0,0,.12,1,1.07,1.07,0,0,0,.62.62,3.77,3.77,0,0,0,1.49.23Z"/>
      <path d="M51.68,40.77H44.16V39.69a5.16,5.16,0,0,0,1.39-.13.61.61,0,0,0,.44-.64,1.86,1.86,0,0,0-.15-.72l-.75-1.88H39.92l-.39,1a4.13,4.13,0,0,0-.33,1.26.83.83,0,0,0,.55.89,3.79,3.79,0,0,0,1.28.19v1.08H35.54V39.69a2.36,2.36,0,0,0,1.11-.24,2.52,2.52,0,0,0,.88-.94,12.59,12.59,0,0,0,.9-1.94l4.59-12h1.12L49,36.94c.35.88.61,1.47.77,1.78a1.82,1.82,0,0,0,.68.72,2.46,2.46,0,0,0,1.23.25Zm-7-5.6-2.2-5.56-2.09,5.56Z"/>
      <path d="M71.05,40.77H62.2V39.69h.71a4.48,4.48,0,0,0,1.26-.11.4.4,0,0,0,.33-.39,4.69,4.69,0,0,0-1-1.77l-3.42-4.83-2,1.78v3.44a1.88,1.88,0,0,0,.49,1.47,3,3,0,0,0,1.83.41v1.08h-8V39.69A4,4,0,0,0,54,39.48a1.09,1.09,0,0,0,.64-.6,3.34,3.34,0,0,0,.14-1.07v-10a3.38,3.38,0,0,0-.13-1.07,1.09,1.09,0,0,0-.64-.6,4.14,4.14,0,0,0-1.52-.21V24.83h8v1.09a2.86,2.86,0,0,0-1.89.42,2,2,0,0,0-.43,1.46v4.79l5-4.34a4.75,4.75,0,0,0,.75-.77,1.21,1.21,0,0,0,.23-.72c0-.56-.53-.84-1.61-.84V24.83h7.28v1.09a8.06,8.06,0,0,0-1.38.2,3.45,3.45,0,0,0-1,.42,8.35,8.35,0,0,0-1.11.77c-.4.33-1,.86-1.89,1.61l-1.67,1.45,4.7,6.7a15.49,15.49,0,0,0,1.24,1.59,2.9,2.9,0,0,0,1,.76,4.09,4.09,0,0,0,1.46.27Z"/>
      <path d="M85.86,35.53l-.13,5.24H71.53V39.69a2.86,2.86,0,0,0,1.89-.42,2,2,0,0,0,.43-1.46v-10a3.34,3.34,0,0,0-.14-1.07,1.1,1.1,0,0,0-.63-.6,4.28,4.28,0,0,0-1.55-.21V24.83H84.76L85,29H83.89a5.8,5.8,0,0,0-.84-2A2,2,0,0,0,82,26.27a8.82,8.82,0,0,0-1.79-.13h-3v5.63h1.62a3.91,3.91,0,0,0,1.25-.15.93.93,0,0,0,.57-.56,4.46,4.46,0,0,0,.23-1.29H82v5.3H80.92a4,4,0,0,0-.23-1.3,1,1,0,0,0-.59-.55,3.91,3.91,0,0,0-1.25-.15H77.21v3.75a11.76,11.76,0,0,0,.05,1.38,1.44,1.44,0,0,0,.25.72,1.16,1.16,0,0,0,.67.42,5,5,0,0,0,1.32.13h1.28a5.63,5.63,0,0,0,1.55-.21,3,3,0,0,0,1.44-1,5.57,5.57,0,0,0,1-2.68Z"/>
      <path d="M99.5,36.2a4.4,4.4,0,0,1-.32,1.57,5.54,5.54,0,0,1-1,1.59,5,5,0,0,1-1.61,1.23,5.08,5.08,0,0,1-2.26.48,6.29,6.29,0,0,1-2.52-.55,5.5,5.5,0,0,1-2.12-1.65,6.07,6.07,0,0,0-.49,1.61H88.14V35h1.08A11.4,11.4,0,0,0,90,37.24,5.34,5.34,0,0,0,91.5,39a3.66,3.66,0,0,0,2.32.74,2.73,2.73,0,0,0,1.92-.66,2.13,2.13,0,0,0,.72-1.65,2.07,2.07,0,0,0-.22-1,2.42,2.42,0,0,0-.65-.76A7.83,7.83,0,0,0,94.44,35c-.49-.25-1-.52-1.68-.8a13.27,13.27,0,0,1-2.37-1.38A6.8,6.8,0,0,1,89,31.46a4.56,4.56,0,0,1-.66-1.24A4,4,0,0,1,88.14,29a4.25,4.25,0,0,1,.58-2.11,4.49,4.49,0,0,1,1.68-1.7A4.88,4.88,0,0,1,93,24.55a4.76,4.76,0,0,1,2.13.5,5.41,5.41,0,0,1,1.75,1.37A7.42,7.42,0,0,0,97.24,25h1.11v4.45H97.24c-.78-2.42-2.15-3.64-4.09-3.64a2.51,2.51,0,0,0-1.7.56,1.83,1.83,0,0,0-.64,1.44,1.88,1.88,0,0,0,.4,1.21,3.49,3.49,0,0,0,1.05.87c.44.25,1.14.6,2.11,1a29.25,29.25,0,0,1,2.76,1.45A5.88,5.88,0,0,1,98.81,34,3.64,3.64,0,0,1,99.5,36.2Z"/>
      <path d="M115.4,29.08a3.66,3.66,0,0,1-1.21,3,5.92,5.92,0,0,1-2.85,1.3,20.07,20.07,0,0,1-3.45.29h-1.06v4.16a2.94,2.94,0,0,0,.16,1.1,1.08,1.08,0,0,0,.65.58,4.3,4.3,0,0,0,1.54.2v1.08h-8V39.69a4.08,4.08,0,0,0,1.51-.21,1.1,1.1,0,0,0,.63-.6,3,3,0,0,0,.15-1.07V27.75a3.23,3.23,0,0,0-.14-1.06,1.09,1.09,0,0,0-.64-.6,3.84,3.84,0,0,0-1.51-.22V24.76l4.55-.11.77,0h2.28a22.68,22.68,0,0,1,2.69.27,6,6,0,0,1,2.62,1.2A3.48,3.48,0,0,1,115.4,29.08Zm-3.62,0a2.67,2.67,0,0,0-1.11-2.54,5.77,5.77,0,0,0-2.92-.64c-.22,0-.53,0-.92,0v6.41h1.08a5.67,5.67,0,0,0,2.8-.6C111.42,31.36,111.78,30.47,111.78,29.1Z"/>
      <path d="M131,35.53l-.13,5.24h-14.2V39.69a2.86,2.86,0,0,0,1.89-.42,2,2,0,0,0,.43-1.46v-10a3.34,3.34,0,0,0-.14-1.07,1.1,1.1,0,0,0-.63-.6,4.28,4.28,0,0,0-1.55-.21V24.83H129.9l.21,4.14H129a5.8,5.8,0,0,0-.84-2,2,2,0,0,0-1.07-.73,8.78,8.78,0,0,0-1.78-.13h-3v5.63H124a3.91,3.91,0,0,0,1.25-.15.93.93,0,0,0,.57-.56,4.46,4.46,0,0,0,.23-1.29h1.13v5.3h-1.09a3.79,3.79,0,0,0-.23-1.3,1,1,0,0,0-.59-.55,3.84,3.84,0,0,0-1.24-.15h-1.65v3.75c0,.63,0,1.09.05,1.38a1.44,1.44,0,0,0,.25.72,1.16,1.16,0,0,0,.67.42,5,5,0,0,0,1.32.13h1.28a5.63,5.63,0,0,0,1.55-.21,3,3,0,0,0,1.44-1,5.57,5.57,0,0,0,1-2.68Z"/>
      <path d="M148.24,40.77h-7.52V39.69a5.16,5.16,0,0,0,1.39-.13.61.61,0,0,0,.44-.64,1.86,1.86,0,0,0-.15-.72l-.75-1.88h-5.17l-.39,1a4.13,4.13,0,0,0-.33,1.26.83.83,0,0,0,.55.89,3.79,3.79,0,0,0,1.28.19v1.08H132.1V39.69a2.36,2.36,0,0,0,1.11-.24,2.52,2.52,0,0,0,.88-.94,12.59,12.59,0,0,0,.9-1.94l4.59-12h1.12l4.86,12.41c.35.88.61,1.47.77,1.78a1.82,1.82,0,0,0,.68.72,2.46,2.46,0,0,0,1.23.25Zm-7-5.6L139,29.61l-2.09,5.56Z"/>
      <path d="M166.27,40.77H162a6.93,6.93,0,0,1-.58-.75c-.23-.33-.48-.71-.76-1.16L160,37.77,158.9,36a14.66,14.66,0,0,0-1.1-1.64,1.67,1.67,0,0,0-.85-.57,7.43,7.43,0,0,0-1.61-.12h-.6v4.16a3.12,3.12,0,0,0,.14,1.06,1,1,0,0,0,.66.61,4.28,4.28,0,0,0,1.52.21v1.08h-8V39.69a2.84,2.84,0,0,0,1.88-.42,2.09,2.09,0,0,0,.41-1.46V27.75a2.08,2.08,0,0,0-.4-1.45,2.75,2.75,0,0,0-1.89-.43V24.76l3.69-.11,1,0h1l1.21,0c.79,0,1.53.07,2.22.14a10.12,10.12,0,0,1,1.63.27,5.71,5.71,0,0,1,1.68.74,4,4,0,0,1,1.29,1.37,3.71,3.71,0,0,1,.5,2A3.5,3.5,0,0,1,161.82,32a5.89,5.89,0,0,1-2,.93,5.53,5.53,0,0,1,1.46,1.25c.4.5,1,1.42,1.88,2.75a19.28,19.28,0,0,0,1.22,1.72,3,3,0,0,0,.89.79,2.82,2.82,0,0,0,1,.26Zm-6.61-11.69a2.6,2.6,0,0,0-1.16-2.53,6.31,6.31,0,0,0-3-.62h-.74v6.41h.74a7,7,0,0,0,3-.58C159.26,31.39,159.66,30.49,159.66,29.08Z"/>
      <path d="M181.18,35.53l-.13,5.24h-14.2V39.69a2.88,2.88,0,0,0,1.89-.42,2,2,0,0,0,.42-1.46v-10a3.38,3.38,0,0,0-.13-1.07,1.12,1.12,0,0,0-.64-.6,4.22,4.22,0,0,0-1.54-.21V24.83h13.22l.21,4.14H179.2a5.43,5.43,0,0,0-.84-2,2,2,0,0,0-1.07-.73,8.78,8.78,0,0,0-1.78-.13h-3v5.63h1.63a3.84,3.84,0,0,0,1.24-.15.92.92,0,0,0,.58-.56,4.53,4.53,0,0,0,.22-1.29h1.13v5.3h-1.08a3.75,3.75,0,0,0-.24-1.3,1,1,0,0,0-.59-.55,3.8,3.8,0,0,0-1.24-.15h-1.65v3.75c0,.63,0,1.09,0,1.38a1.54,1.54,0,0,0,.25.72,1.16,1.16,0,0,0,.67.42,5.05,5.05,0,0,0,1.33.13h1.28a5.56,5.56,0,0,0,1.54-.21,3,3,0,0,0,1.44-1,5.57,5.57,0,0,0,1-2.68Z"/>
    </g>
  </g>
</svg>
