<?xml version="1.0" encoding="utf-8"?>
<!-- Generator: Adobe Illustrator 25.2.3, SVG Export Plug-In . SVG Version: 6.00 Build 0)  -->
<svg version="1.1" id="Layer_1" xmlns="http://www.w3.org/2000/svg" xmlns:xlink="http://www.w3.org/1999/xlink" x="0px" y="0px"
	 viewBox="0 0 12.25 11.01" style="enable-background:new 0 0 12.25 11.01;" xml:space="preserve">
<style type="text/css">
	.st0{fill:#6C9ECC;}
	.st1{fill:#F5BE80;}
</style>
<rect x="-2.12" y="-2.28" class="st0" width="16" height="17"/>
<g>
	<path class="st1" d="M2.06,11.01C0.93,11.01,0,10.08,0,8.95V2.06C0,0.93,0.93,0,2.06,0h6.88c1.14,0,2.06,0.93,2.06,2.06v6.88
		c0,1.13-0.93,2.06-2.06,2.06H2.06z M8.95,9.63c0.38,0,0.69-0.31,0.69-0.69V2.06c0-0.38-0.31-0.69-0.69-0.69H2.06
		c-0.38,0-0.69,0.31-0.69,0.69v6.88c0,0.38,0.31,0.69,0.69,0.69H8.95z"/>
</g>
</svg>
