<?xml version="1.0" encoding="utf-8"?>
<!-- Generator: Adobe Illustrator 25.2.3, SVG Export Plug-In . SVG Version: 6.00 Build 0)  -->
<svg version="1.1" id="Layer_1" xmlns="http://www.w3.org/2000/svg" xmlns:xlink="http://www.w3.org/1999/xlink" x="0px" y="0px"
	 viewBox="0 0 12.25 11.01" style="enable-background:new 0 0 12.25 11.01;" xml:space="preserve">
<style type="text/css">
	.st0{fill:#6C9ECC;}
	.st1{fill:#F5BE80;}
</style>
<rect x="-2.12" y="-2.28" class="st0" width="16" height="17"/>
<g>
	<path class="st1" d="M2.06,11.01C0.93,11.01,0,10.08,0,8.95V2.06C0,0.93,0.93,0,2.06,0h6.88c0.21,0,0.4,0.04,0.58,0.1L7.99,1.38
		H2.06c-0.38,0-0.69,0.31-0.69,0.69v6.88c0,0.38,0.31,0.69,0.69,0.69h6.88c0.38,0,0.69-0.31,0.69-0.69v-2.5l1.38-1.43v3.94
		c0,1.13-0.93,2.06-2.06,2.06H2.06z M5.47,7.73L2.95,5.04C2.9,4.97,2.86,4.89,2.86,4.8c0-0.08,0.03-0.15,0.08-0.21l0.54-0.67
		c0.07-0.08,0.17-0.13,0.27-0.13c0.06,0,0.13,0.02,0.19,0.06l1.8,1.2L11,0.66c0.07-0.06,0.14-0.08,0.22-0.08
		c0.09,0,0.18,0.03,0.25,0.1l0.68,0.69c0.07,0.06,0.1,0.15,0.1,0.24c0,0.08-0.03,0.17-0.1,0.24L6.47,7.73
		c-0.14,0.14-0.32,0.21-0.5,0.21C5.79,7.95,5.61,7.87,5.47,7.73z"/>
</g>
</svg>
