<svg xmlns="http://www.w3.org/2000/svg" viewBox="0 0 30 30"><defs><style>.cls-1{fill:#2a69a1;}.cls-2{fill:#f2f2f2;}</style></defs><title>Asset 21Modal-NEWTAB-all-ROLL</title><g id="Layer_2" data-name="Layer 2"><g id="Variorum"><rect class="cls-1" width="30" height="30"/><path class="cls-2" d="M21.82,16.54H20.48a.69.69,0,0,1-.49-.2.66.66,0,0,1-.2-.48V12.13L9.62,22.3a.67.67,0,0,1-1,0l-1-1a.67.67,0,0,1,0-1L17.87,10.21H14.14a.68.68,0,0,1-.68-.69V8.18a.7.7,0,0,1,.2-.49.67.67,0,0,1,.48-.19h7.69a.65.65,0,0,1,.67.67v7.69a.67.67,0,0,1-.19.48A.7.7,0,0,1,21.82,16.54Z"/></g></g></svg>