<svg xmlns="http://www.w3.org/2000/svg" viewBox="0 0 30 30"><defs><style>.cls-1{fill:#2a69a1;}.cls-2{fill:#f2f2f2;}</style></defs><title>Asset 19Modal-GOTO-ALL-ROLL</title><g id="Layer_2" data-name="Layer 2"><g id="Variorum"><rect class="cls-1" width="30" height="30"/><path class="cls-2" d="M18.27,20.71l-.91-.92a.63.63,0,0,1-.2-.47.61.61,0,0,1,.2-.46l2.54-2.55H6a.65.65,0,0,1-.66-.65V14.34A.65.65,0,0,1,6,13.69H19.9l-2.54-2.55a.64.64,0,0,1,0-.93l.91-.92a.66.66,0,0,1,.48-.19.65.65,0,0,1,.45.19l5.25,5.25a.63.63,0,0,1,0,.92L19.2,20.71a.65.65,0,0,1-.45.19A.66.66,0,0,1,18.27,20.71Z"/></g></g></svg>