<svg xmlns="http://www.w3.org/2000/svg" viewBox="0 0 30 30"><defs><style>.cls-1{fill:#fffade;}.cls-2{fill:#ababab;}</style></defs><title>Asset 23Modal-CLOSE-CN</title><g id="Layer_2" data-name="Layer 2"><g id="Variorum"><rect class="cls-1" width="30" height="30"/><path class="cls-2" d="M9.24,21.47l-.71-.71a1,1,0,0,1-.3-.73,1,1,0,0,1,.3-.72L12.84,15,8.53,10.69a1,1,0,0,1-.3-.72,1,1,0,0,1,.3-.73l.71-.71a1,1,0,0,1,.73-.3,1,1,0,0,1,.72.3L15,12.84l4.31-4.31a1,1,0,0,1,.72-.3,1,1,0,0,1,.73.3l.71.71a1,1,0,0,1,.3.73,1,1,0,0,1-.3.72L17.16,15l4.31,4.31a1,1,0,0,1,.3.72,1,1,0,0,1-.3.73l-.71.71a1,1,0,0,1-.73.3,1,1,0,0,1-.72-.3L15,17.16l-4.31,4.31a1,1,0,0,1-.72.3A1,1,0,0,1,9.24,21.47Z"/></g></g></svg>