<?xml version="1.0" encoding="utf-8"?>
<!-- Generator: Adobe Illustrator 23.1.1, SVG Export Plug-In . SVG Version: 6.00 Build 0)  -->
<svg version="1.1" id="Layer_1" xmlns="http://www.w3.org/2000/svg" xmlns:xlink="http://www.w3.org/1999/xlink" x="0px" y="0px"
	 viewBox="0 0 30 30" style="enable-background:new 0 0 30 30;" xml:space="preserve">
<style type="text/css">
	.st0{fill:#FFFFFF;}
	.st1{fill:#2A69A1;}
</style>
<title>Asset 21Modal-NEWTAB-all-ROLL</title>
<rect class="st0" width="30" height="30"/>
<path class="st1" d="M21.8,16.5h-1.3c-0.2,0-0.4-0.1-0.5-0.2c-0.1-0.1-0.2-0.3-0.2-0.5v-3.7L9.6,22.3c-0.2,0.3-0.7,0.3-0.9,0.1
	c0,0,0,0-0.1-0.1l-1-1c-0.3-0.2-0.3-0.7-0.1-0.9c0,0,0,0,0.1-0.1l10.3-10.1h-3.7c-0.4,0-0.7-0.3-0.7-0.7c0,0,0,0,0,0V8.2
	c0-0.2,0.1-0.4,0.2-0.5c0.1-0.1,0.3-0.2,0.5-0.2h7.7c0.4,0,0.7,0.3,0.7,0.6c0,0,0,0,0,0v7.7c0,0.2-0.1,0.4-0.2,0.5
	C22.2,16.5,22,16.5,21.8,16.5z"/>
</svg>
