<?xml version="1.0" encoding="utf-8"?>
<!-- Generator: Adobe Illustrator 25.2.3, SVG Export Plug-In . SVG Version: 6.00 Build 0)  -->
<svg version="1.1" id="Layer_1" xmlns="http://www.w3.org/2000/svg" xmlns:xlink="http://www.w3.org/1999/xlink" x="0px" y="0px"
	 viewBox="0 0 11.01 11.01" style="enable-background:new 0 0 11.01 11.01;" xml:space="preserve">
<style type="text/css">
	.st0{fill:#6C9ECC;}
	.st1{fill:#F5BE80;}
</style>
<rect x="-2.18" y="-2.44" class="st0" width="16" height="17"/>
<g>
	<path class="st1" d="M0,5.51C0,2.47,2.47,0,5.51,0s5.51,2.47,5.51,5.51s-2.47,5.51-5.51,5.51S0,8.54,0,5.51z M9.63,5.51
		c0-2.28-1.85-4.13-4.13-4.13S1.38,3.23,1.38,5.51s1.85,4.13,4.13,4.13S9.63,7.78,9.63,5.51z M2.75,5.51c0-1.52,1.23-2.75,2.75-2.75
		s2.75,1.23,2.75,2.75S7.03,8.26,5.51,8.26S2.75,7.03,2.75,5.51z"/>
</g>
</svg>
