<?xml version="1.0" encoding="utf-8"?>
<!-- Generator: Adobe Illustrator 23.1.1, SVG Export Plug-In . SVG Version: 6.00 Build 0)  -->
<svg version="1.1" id="Layer_1" xmlns="http://www.w3.org/2000/svg" xmlns:xlink="http://www.w3.org/1999/xlink" x="0px" y="0px"
	 viewBox="0 0 82.02 32.1" style="enable-background:new 0 0 82.02 32.1;" xml:space="preserve">
<style type="text/css">
	.st0{fill:#E6E6E6;}
	.st1{enable-background:new    ;}
	.st2{fill:#2A69A1;}
	.st3{fill:none;}
</style>
<rect class="st0" width="50.35" height="32.1"/>
<g>
	<g class="st1">
		<path class="st2" d="M61.17,7.43h-2.06v6.98h-0.98V7.43h-2.05V6.59h5.09V7.43z"/>
		<path class="st2" d="M67.44,14.41h-0.99v-3.62H63.3v3.62h-0.98V6.59h0.98v3.36h3.15V6.59h0.99V14.41z"/>
		<path class="st2" d="M70.17,14.41h-0.98V6.59h0.98V14.41z"/>
		<path class="st2" d="M75.31,12.43c0-0.39-0.11-0.69-0.32-0.9c-0.21-0.21-0.59-0.41-1.14-0.61c-0.55-0.2-0.97-0.4-1.26-0.62
			s-0.51-0.46-0.66-0.74c-0.14-0.28-0.22-0.6-0.22-0.95c0-0.62,0.21-1.13,0.62-1.53c0.41-0.4,0.96-0.6,1.62-0.6
			c0.46,0,0.87,0.1,1.22,0.31c0.36,0.21,0.63,0.49,0.83,0.85C76.2,8,76.3,8.41,76.3,8.84h-0.99c0-0.48-0.12-0.86-0.35-1.12
			c-0.23-0.26-0.57-0.4-1-0.4c-0.4,0-0.71,0.11-0.92,0.33c-0.22,0.22-0.33,0.53-0.33,0.94c0,0.33,0.12,0.61,0.35,0.83
			c0.24,0.22,0.6,0.42,1.1,0.6c0.77,0.25,1.32,0.57,1.65,0.94s0.5,0.86,0.5,1.46c0,0.63-0.21,1.14-0.62,1.52
			c-0.41,0.38-0.97,0.57-1.68,0.57c-0.46,0-0.88-0.1-1.26-0.3c-0.38-0.2-0.69-0.48-0.91-0.84c-0.22-0.36-0.33-0.77-0.33-1.24h0.99
			c0,0.48,0.14,0.86,0.41,1.13c0.27,0.27,0.64,0.4,1.1,0.4c0.43,0,0.76-0.11,0.98-0.33C75.2,13.12,75.31,12.81,75.31,12.43z"/>
	</g>
	<g class="st1">
		<path class="st2" d="M57.58,22.34v3.06h-0.98v-7.82h2.49c0.73,0,1.3,0.22,1.71,0.65c0.42,0.44,0.62,1.01,0.62,1.74
			c0,0.75-0.2,1.33-0.59,1.74s-0.95,0.62-1.67,0.63H57.58z M57.58,21.5h1.51c0.44,0,0.77-0.13,1-0.39c0.23-0.26,0.35-0.64,0.35-1.12
			c0-0.47-0.12-0.85-0.36-1.13c-0.24-0.28-0.57-0.42-0.99-0.42h-1.51V21.5z"/>
		<path class="st2" d="M63.68,24.56h3.07v0.84h-4.05v-7.82h0.99V24.56z"/>
		<path class="st2" d="M71.67,23.36h-2.64l-0.61,2.05h-1.01l2.52-7.82h0.84l2.52,7.82h-1.01L71.67,23.36z M69.28,22.52h2.13
			l-1.07-3.56L69.28,22.52z"/>
		<path class="st2" d="M75.89,21.51l1.6-3.93h1.11l-2.22,4.9v2.92h-0.98v-2.92l-2.22-4.9h1.12L75.89,21.51z"/>
	</g>
</g>
<rect x="14.48" y="6.21" class="st3" width="33.33" height="23.29"/>
<g class="st1">
	<path class="st2" d="M32.23,26.75l-5.89-5.89c-1.17,0.7-2.53,1.1-3.99,1.1c-4.34,0-7.87-3.53-7.87-7.87c0-4.34,3.53-7.87,7.87-7.87
		s7.87,3.53,7.87,7.87c0,1.46-0.41,2.82-1.1,3.99l5.89,5.89c0.26,0.26,0.39,0.59,0.39,0.93s-0.13,0.67-0.39,0.93l-0.92,0.92
		c-0.26,0.26-0.59,0.39-0.93,0.39S32.49,27.01,32.23,26.75z M27.6,14.08c0-2.9-2.35-5.25-5.25-5.25s-5.25,2.35-5.25,5.25
		c0,2.9,2.35,5.25,5.25,5.25S27.6,16.98,27.6,14.08z"/>
</g>
</svg>
