<?xml version="1.0" encoding="utf-8"?>
<!-- Generator: Adobe Illustrator 23.1.1, SVG Export Plug-In . SVG Version: 6.00 Build 0)  -->
<svg version="1.1" id="Layer_1" xmlns="http://www.w3.org/2000/svg" xmlns:xlink="http://www.w3.org/1999/xlink" x="0px" y="0px"
	 viewBox="0 0 31.46 32.1" style="enable-background:new 0 0 31.46 32.1;" xml:space="preserve">
<style type="text/css">
	.st0{fill:#2A69A1;}
	.st1{fill:#FFFFFF;}
</style>
<rect class="st0" width="31.46" height="32.1"/>
<g>
	<g>
		<path class="st1" d="M20.31,22.67l-1.22-1.23c-0.18-0.17-0.26-0.4-0.26-0.63s0.09-0.44,0.26-0.61l3.4-3.4H3.95
			c-0.49,0-0.88-0.38-0.88-0.88v-1.75c0-0.49,0.38-0.88,0.88-0.88h18.54l-3.4-3.4c-0.18-0.18-0.26-0.4-0.26-0.61
			c0-0.23,0.09-0.46,0.26-0.63l1.22-1.23c0.17-0.17,0.4-0.26,0.63-0.26c0.21,0,0.44,0.09,0.61,0.26l7,7
			c0.18,0.16,0.26,0.39,0.26,0.61s-0.09,0.46-0.26,0.61l-7,7c-0.18,0.17-0.4,0.26-0.61,0.26C20.71,22.93,20.49,22.84,20.31,22.67z"
			/>
	</g>
</g>
</svg>
