<?xml version="1.0" encoding="utf-8"?>
<!-- Generator: Adobe Illustrator 23.1.1, SVG Export Plug-In . SVG Version: 6.00 Build 0)  -->
<svg version="1.1" id="Layer_1" xmlns="http://www.w3.org/2000/svg" xmlns:xlink="http://www.w3.org/1999/xlink" x="0px" y="0px"
	 viewBox="0 0 67.36 32.1" style="enable-background:new 0 0 67.36 32.1;" xml:space="preserve">
<style type="text/css">
	.st0{fill:#E6E6E6;}
	.st1{enable-background:new    ;}
	.st2{fill:#2A69A1;}
</style>
<rect class="st0" width="31.46" height="32.1"/>
<g>
	<g class="st1">
		<path class="st2" d="M41,13.27l-0.17,0.21c-0.49,0.58-1.22,0.87-2.17,0.87c-0.85,0-1.51-0.28-1.99-0.84s-0.73-1.35-0.74-2.38V9.6
			c0-1.1,0.22-1.92,0.66-2.46c0.44-0.55,1.09-0.82,1.97-0.82c0.75,0,1.33,0.21,1.75,0.62c0.42,0.41,0.65,1.01,0.7,1.78h-0.98
			c-0.04-0.49-0.17-0.87-0.41-1.14c-0.23-0.27-0.58-0.41-1.05-0.41c-0.56,0-0.97,0.18-1.24,0.55c-0.26,0.37-0.4,0.95-0.41,1.76v1.6
			c0,0.79,0.15,1.39,0.45,1.81s0.73,0.63,1.29,0.63c0.53,0,0.93-0.13,1.21-0.38l0.14-0.13v-1.8h-1.43v-0.84H41V13.27z"/>
		<path class="st2" d="M47.69,11.02c0,1.07-0.23,1.89-0.68,2.46c-0.45,0.58-1.1,0.87-1.94,0.87c-0.81,0-1.44-0.28-1.91-0.84
			c-0.47-0.56-0.71-1.35-0.73-2.38V9.66c0-1.04,0.23-1.86,0.69-2.46s1.11-0.89,1.93-0.89c0.82,0,1.46,0.28,1.93,0.85
			c0.46,0.57,0.7,1.38,0.71,2.43V11.02z M46.71,9.65c0-0.83-0.13-1.44-0.41-1.85c-0.27-0.4-0.68-0.6-1.24-0.6
			c-0.54,0-0.95,0.2-1.23,0.61s-0.42,1.01-0.42,1.8v1.4c0,0.8,0.14,1.41,0.42,1.83c0.28,0.42,0.69,0.63,1.24,0.63
			c0.55,0,0.96-0.19,1.22-0.58c0.26-0.39,0.4-0.98,0.41-1.78V9.65z"/>
		<path class="st2" d="M56.09,7.27h-2.06v6.98h-0.98V7.27h-2.05V6.43h5.09V7.27z"/>
		<path class="st2" d="M62.18,11.02c0,1.07-0.23,1.89-0.68,2.46c-0.46,0.58-1.1,0.87-1.94,0.87c-0.81,0-1.44-0.28-1.91-0.84
			c-0.47-0.56-0.71-1.35-0.73-2.38V9.66c0-1.04,0.23-1.86,0.69-2.46s1.11-0.89,1.93-0.89c0.82,0,1.47,0.28,1.93,0.85
			s0.7,1.38,0.71,2.43V11.02z M61.19,9.65c0-0.83-0.14-1.44-0.41-1.85c-0.27-0.4-0.68-0.6-1.24-0.6c-0.54,0-0.95,0.2-1.23,0.61
			c-0.28,0.41-0.42,1.01-0.42,1.8v1.4c0,0.8,0.14,1.41,0.42,1.83s0.69,0.63,1.24,0.63c0.55,0,0.96-0.19,1.22-0.58
			c0.27-0.39,0.4-0.98,0.41-1.78V9.65z"/>
	</g>
	<g class="st1">
		<path class="st2" d="M37.09,24.4h3.07v0.84h-4.06v-7.82h0.99V24.4z"/>
		<path class="st2" d="M42.36,25.25h-0.98v-7.82h0.98V25.25z"/>
		<path class="st2" d="M49.19,25.25H48.2l-3.13-6.03v6.03h-0.99v-7.82h0.99l3.14,6.05v-6.05h0.98V25.25z"/>
		<path class="st2" d="M54.64,21.63h-2.77v2.77h3.22v0.84h-4.21v-7.82h4.15v0.84h-3.17v2.52h2.77V21.63z"/>
		<path class="st2" d="M61.61,23.05H60.5l-0.37,2.2h-0.72l0.37-2.2h-1.05v-0.74h1.17l0.32-1.91h-1.14v-0.74h1.27l0.37-2.23h0.72
			l-0.37,2.23h1.11l0.37-2.23h0.73l-0.37,2.23h0.87v0.74h-0.99l-0.32,1.91h0.97v0.74h-1.1l-0.37,2.2h-0.73L61.61,23.05z
			 M60.62,22.31h1.11l0.32-1.91h-1.11L60.62,22.31z"/>
	</g>
</g>
<g>
	<path class="st2" d="M20.31,22.67l-1.22-1.23c-0.18-0.17-0.26-0.4-0.26-0.63s0.09-0.44,0.26-0.61l3.4-3.4H3.95
		c-0.49,0-0.88-0.38-0.88-0.88v-1.75c0-0.49,0.38-0.88,0.88-0.88h18.54l-3.4-3.4c-0.18-0.18-0.26-0.4-0.26-0.61
		c0-0.23,0.09-0.46,0.26-0.63l1.22-1.23c0.17-0.17,0.4-0.26,0.63-0.26c0.21,0,0.44,0.09,0.61,0.26l7,7
		c0.18,0.16,0.26,0.39,0.26,0.61s-0.09,0.46-0.26,0.61l-7,7c-0.18,0.17-0.4,0.26-0.61,0.26C20.71,22.93,20.49,22.84,20.31,22.67z"/>
</g>
</svg>
