<svg xmlns="http://www.w3.org/2000/svg" viewBox="0 0 32.97 38"><defs><style>.cls-1{fill:#ef8537;}.cls-2{fill:#fff;}</style></defs><title>Asset 16TV-collapse-variants-ROLL</title><g id="Layer_2" data-name="Layer 2"><g id="Variorum"><rect class="cls-1" width="32.97" height="38"/><path class="cls-2" d="M16.49,14.92a.43.43,0,0,1,.3.13l5.87,5.86a.44.44,0,0,1,.13.32.43.43,0,0,1-.13.3L21.24,23a.45.45,0,0,1-.3.13.48.48,0,0,1-.32-.13l-4.13-4.14L12.35,23a.43.43,0,0,1-.62,0l-1.42-1.42a.47.47,0,0,1-.13-.3.48.48,0,0,1,.13-.32l5.87-5.86A.44.44,0,0,1,16.49,14.92Z"/></g></g></svg>