<svg xmlns="http://www.w3.org/2000/svg" viewBox="0 0 32.97 38"><defs><style>.cls-1{fill:#ef8537;}.cls-2{fill:#fff;}</style></defs><title>Asset 14TV-expand-variants-ROLL</title><g id="Layer_2" data-name="Layer 2"><g id="Variorum"><rect class="cls-1" width="32.97" height="38"/><path class="cls-2" d="M16.18,23l-5.87-5.86a.48.48,0,0,1-.13-.32.47.47,0,0,1,.13-.3l1.42-1.42a.43.43,0,0,1,.62,0l4.14,4.14,4.13-4.14a.48.48,0,0,1,.32-.13.45.45,0,0,1,.3.13l1.42,1.42a.43.43,0,0,1,.13.3.44.44,0,0,1-.13.32L16.79,23a.43.43,0,0,1-.3.13A.44.44,0,0,1,16.18,23Z"/></g></g></svg>