<svg xmlns="http://www.w3.org/2000/svg" viewBox="0 0 32.97 40"><defs><style>.cls-1{fill:#f0e438;}.cls-2{fill:#2a69a1;}</style></defs><title>Asset 6VAR-bar-CN-collapse-ROLL</title><g id="Layer_2" data-name="Layer 2"><g id="Variorum"><rect class="cls-1" width="32.97" height="40"/><path class="cls-2" d="M18.44,12.28l7.3,7.29a.6.6,0,0,1,0,.86l-7.3,7.29a.6.6,0,0,1-.86,0l-.86-.85a.62.62,0,0,1-.18-.44.61.61,0,0,1,.18-.42l6-6-6-6a.61.61,0,0,1-.18-.42.62.62,0,0,1,.18-.44l.86-.85a.6.6,0,0,1,.86,0Z"/><path class="cls-2" d="M11,12.28l7.3,7.29a.6.6,0,0,1,0,.86L11,27.72a.61.61,0,0,1-.42.18.62.62,0,0,1-.44-.18l-.85-.85a.63.63,0,0,1-.19-.44A.62.62,0,0,1,9.24,26l6-6-6-6a.62.62,0,0,1-.19-.42.63.63,0,0,1,.19-.44l.85-.85a.62.62,0,0,1,.44-.18A.61.61,0,0,1,11,12.28Z"/></g></g></svg>