<svg xmlns="http://www.w3.org/2000/svg" viewBox="0 0 50.35 32"><defs><style>.cls-1{fill:#2a69a1;}.cls-2{fill:#fff;}</style></defs><title>Asset 12VAR-bar-search-ROLL</title><g id="Layer_2" data-name="Layer 2"><g id="Variorum"><rect class="cls-1" width="50.35" height="32"/><path class="cls-2" d="M32.73,25.75l-5.89-5.9a7.74,7.74,0,0,1-4,1.11,7.88,7.88,0,1,1,7.87-7.88,7.73,7.73,0,0,1-1.1,4L35.51,23a1.29,1.29,0,0,1,0,1.87l-.91.92a1.34,1.34,0,0,1-.94.39A1.32,1.32,0,0,1,32.73,25.75ZM28.1,13.08a5.25,5.25,0,1,0-5.25,5.25A5.25,5.25,0,0,0,28.1,13.08Z"/></g></g></svg>