<svg xmlns="http://www.w3.org/2000/svg" viewBox="0 0 32.97 40"><defs><style>.cls-1{fill:#6c9ecc;}.cls-2{fill:#f2f2f2;}</style></defs><title>Asset 4VAR-bar-CN-expand</title><g id="Layer_2" data-name="Layer 2"><g id="Variorum"><rect class="cls-1" width="32.97" height="40"/><path class="cls-2" d="M15,12.1a.62.62,0,0,1,.44.18l.85.85a.62.62,0,0,1,.18.44.61.61,0,0,1-.18.42l-6,6,6,6a.61.61,0,0,1,.18.42.62.62,0,0,1-.18.44l-.85.85a.62.62,0,0,1-.44.18.63.63,0,0,1-.43-.18L7.24,20.43a.58.58,0,0,1,0-.86l7.29-7.29A.63.63,0,0,1,15,12.1Z"/><path class="cls-2" d="M22.45,12.1a.61.61,0,0,1,.43.18l.86.85a.62.62,0,0,1,.18.44.61.61,0,0,1-.18.42l-6,6,6,6a.61.61,0,0,1,.18.42.62.62,0,0,1-.18.44l-.86.85a.6.6,0,0,1-.86,0l-7.3-7.29a.6.6,0,0,1,0-.86L22,12.28A.61.61,0,0,1,22.45,12.1Z"/></g></g></svg>